<svg width="207" height="61" viewBox="0 0 207 61" fill="none" xmlns="http://www.w3.org/2000/svg">
<g clip-path="url(#clip0_1638_10485)">
<path d="M179.142 34.2384V43.5668H164.426L156.429 51.4192L156.322 43.5668H139.347L139.323 20.0567L146.172 31.3145H147.899L154.749 19.8779L154.779 33.6972H158.441L158.412 12.8506H155.224L147.094 26.6699L138.815 12.8506H135.628L135.623 47.2922H152.649L152.823 60.1814L165.946 47.2922H182.863V30.9616C181.875 32.2933 180.628 33.3898 179.141 34.2399L179.142 34.2384Z" fill="#E2AF6C"/>
<path d="M182.865 0.107629H135.682V10.2298H139.404V3.8299H179.141V15.2524C178.608 14.8352 178.021 14.465 177.381 14.1466C175.654 13.2838 173.678 12.8493 171.455 12.8493H162.343V33.6959H171.455C173.679 33.6959 175.656 33.2646 177.381 32.3987C179.108 31.536 180.448 30.3141 181.401 28.736C182.3 27.2459 182.776 25.5393 182.826 23.6146L182.863 0.104492L182.865 0.107629ZM177.993 27.042C177.367 28.1227 176.473 28.9572 175.312 29.5423C174.151 30.129 172.806 30.4192 171.278 30.4192H166.214V16.1245H171.278C172.806 16.1245 174.151 16.4179 175.312 17.0045C176.473 17.588 177.367 18.4225 177.993 19.5049C178.619 20.5856 178.931 21.8405 178.931 23.2711C178.931 24.7016 178.619 25.9565 177.993 27.0404V27.042Z" fill="#E2AF6C"/>
<path d="M11.8919 26.0457L19.633 7.94464H22.7921V29.1097H20.8141V10.2317L20.6635 10.2011L12.6635 29.1097H10.9494L2.94634 10.2026L2.79569 10.2332V29.1113H0.817688V7.94464H3.97692L11.7477 26.0458L11.8199 26.214L11.8919 26.0457Z" fill="black" stroke="black" stroke-width="0.156859"/>
<path d="M41.4586 21.9853H27.289L27.169 21.8653L27.1766 22.0652C27.2355 23.6083 27.8847 24.9206 29.1217 26.0019C30.3547 27.0812 31.7154 27.6229 33.1984 27.6229L33.3427 27.6229L33.344 27.6229C34.4926 27.6038 35.5944 27.2827 36.6438 26.6597C37.6805 26.0458 38.4349 25.2114 38.9061 24.1603L40.9654 24.1342C40.4251 25.6673 39.4516 26.9368 38.0436 27.9434C36.6035 28.9729 35.0569 29.4864 33.4007 29.4864C31.1119 29.4864 29.1742 28.7004 27.5846 27.1294L27.5846 27.1294C25.9921 25.5571 25.1985 23.6308 25.1985 21.3422C25.1985 19.0538 25.9889 17.1459 27.571 15.5545C29.1529 13.9632 31.0748 13.1683 33.3427 13.1683C34.5812 13.1683 35.7427 13.4339 36.8281 13.9665L36.8281 13.9666C37.9142 14.4979 38.848 15.239 39.63 16.1888C40.3534 17.0833 40.8336 18.0034 41.072 18.9489C41.3047 19.8782 41.4337 20.8902 41.4586 21.9853ZM39.4022 20.2066V20.1373L39.4806 20.1297V20.1281V20.0497H39.4661C39.1835 18.6741 38.472 17.5024 37.3322 16.5343L37.3322 16.5343C36.1734 15.5517 34.852 15.0584 33.3709 15.0584C31.891 15.0584 30.5326 15.5336 29.3548 16.4812L29.3547 16.4813C28.1764 17.4309 27.4495 18.6427 27.1778 20.1139L27.1607 20.2066H27.255H39.4022Z" fill="black" stroke="black" stroke-width="0.156859"/>
<path d="M45.2232 15.339V15.2606H45.1448H41.9339V13.4849H45.1448H45.2232V13.4065V7.94464H47.2012V13.4065V13.4849H47.2797H50.8655V15.2606H47.2797H47.2012V15.339V29.1097H45.2232V15.339Z" fill="black" stroke="black" stroke-width="0.156859"/>
<path d="M67.9481 29.1111H66.0548V26.217V26.1386H65.9764H65.9183H65.8702L65.8484 26.1815C65.2786 27.3025 64.4484 28.1309 63.3581 28.6722C62.2632 29.2142 61.0971 29.486 59.8589 29.486C59.534 29.486 59.2157 29.4673 58.9022 29.4285C58.5883 29.3897 58.2678 29.3321 57.944 29.2574L57.9431 29.2572C57.0673 29.0662 56.1997 28.7197 55.3403 28.2137C54.4829 27.7089 53.6913 27.0374 52.9656 26.1966C52.89 26.1025 52.8001 25.9832 52.694 25.8397C52.592 25.6995 52.4938 25.5356 52.3981 25.3457L52.3976 25.3448C52.1515 24.8711 51.9273 24.2741 51.7259 23.5559C51.5257 22.8421 51.4261 22.0666 51.4261 21.2258C51.4261 20.1584 51.6295 19.1543 52.0407 18.2125L52.0408 18.2123C52.4497 17.2686 52.9982 16.4452 53.6831 15.7401L53.6836 15.7396C54.428 14.9578 55.3 14.3345 56.3 13.8664C57.2979 13.4015 58.4642 13.1663 59.8024 13.1663H59.9461C61.1463 13.185 62.2936 13.4707 63.3889 14.0238C64.48 14.5747 65.2992 15.3894 65.85 16.4709L65.8857 16.541L65.9557 16.505L66.0138 16.4752L66.0564 16.4534V16.4055V13.4832H67.9481V29.1111ZM59.8031 15.0314C58.0618 15.0503 56.5647 15.6673 55.3142 16.8776H55.3125L55.2896 16.9C54.0336 18.1274 53.4057 19.6284 53.4057 21.3999C53.4057 23.1726 54.0534 24.6302 55.3492 25.8291L55.4025 25.7715L55.3492 25.8291C56.6417 27.0248 58.146 27.6241 59.8604 27.6241C61.5767 27.6241 62.9893 27.003 64.2157 25.764C65.4403 24.5266 66.0564 23.075 66.0564 21.414C66.0564 19.6409 65.4624 18.131 64.2746 16.8923C63.0858 15.6511 61.5936 15.0314 59.8039 15.0314L59.8031 15.0314Z" fill="black" stroke="black" stroke-width="0.156859"/>
<path d="M72.4462 29.1144V26.4807V26.3553L72.559 26.4102L72.617 26.4384L72.6391 26.4492L72.6511 26.4706C73.0859 27.2462 73.7184 27.8716 74.5539 28.345C75.394 28.8211 76.2612 29.1457 77.1557 29.3166L77.1565 29.3167C77.4424 29.3742 77.7238 29.4162 78.0007 29.4458L72.4462 29.1144ZM72.4462 29.1144H70.5843V7.94464H72.5623V16.3492V16.4276H72.6407H72.6988H72.7491L72.7701 16.3819C73.1865 15.4734 73.8479 14.7544 74.757 14.2241L72.4462 29.1144ZM78.1416 13.182L78.1415 13.182C77.9786 13.1914 77.8124 13.2053 77.6414 13.224C76.6329 13.3575 75.6721 13.6912 74.7571 14.224L78.1416 13.182ZM78.1416 13.182C78.3033 13.1727 78.4602 13.1681 78.6124 13.1681C80.8813 13.1681 82.8578 13.9356 84.5469 15.4708C86.2321 17.0038 87.0749 18.9307 87.0749 21.2557C87.0749 22.2481 86.9178 23.1674 86.6045 24.0127L86.6045 24.0128M78.1416 13.182L86.6045 24.0128M86.6045 24.0128C86.2895 24.8643 85.9321 25.5435 85.5339 26.0545L85.5293 26.0604M86.6045 24.0128L85.5293 26.0604M85.5293 26.0604L85.5259 26.067M85.5293 26.0604L85.5259 26.067M85.5259 26.067C85.4892 26.1389 85.4456 26.2057 85.392 26.268C85.3351 26.3341 85.2782 26.3956 85.2227 26.4527L85.2226 26.4526M85.5259 26.067L85.2226 26.4526M85.2226 26.4526L85.2201 26.4554M85.2226 26.4526L85.2201 26.4554M85.2201 26.4554C84.7798 26.9535 84.3497 27.3789 83.9297 27.7304L83.9296 27.7305M85.2201 26.4554L83.9296 27.7305M83.9296 27.7305C83.5095 28.0836 83.0903 28.3739 82.6735 28.6016L82.6727 28.6021M83.9296 27.7305L82.6727 28.6021M82.6727 28.6021C82.063 28.945 81.4418 29.1772 80.806 29.3009M82.6727 28.6021L80.806 29.3009M80.806 29.3009C80.1665 29.4254 79.5033 29.4877 78.8147 29.4877M80.806 29.3009L78.8147 29.4877M78.8147 29.4877C78.5478 29.4877 78.276 29.4738 78.0011 29.4458L78.8147 29.4877ZM76.2025 15.5553L76.2023 15.5553C75.4147 15.8872 74.7175 16.3637 74.1142 16.9859C73.4922 17.6096 73.0524 18.2923 72.7971 19.0358L72.7971 19.0359C72.5446 19.7759 72.418 20.583 72.418 21.4565C72.418 23.2281 73.0476 24.7016 74.3049 25.8715C75.5605 27.0398 77.0652 27.6242 78.8163 27.6242C80.5692 27.6242 82.0323 27.0039 83.2578 25.7642C84.4848 24.526 85.0985 23.0348 85.0985 21.2981C85.0985 19.5624 84.4745 17.9851 83.2262 16.802C81.9796 15.6206 80.4605 15.03 78.6704 15.03L78.6687 15.03C77.8117 15.049 76.9911 15.2253 76.2025 15.5553Z" fill="black" stroke="black" stroke-width="0.156859"/>
<path d="M96.7809 13.1662V13.139C98.9199 13.176 100.789 13.9841 102.39 15.5671C104.01 17.1688 104.82 19.0533 104.82 21.2241C104.82 23.3966 104.034 25.3881 102.461 27.0269L102.461 27.027C100.89 28.6664 98.9712 29.4843 96.7041 29.4843C94.4365 29.4843 92.575 28.7037 90.9436 27.1407C89.315 25.579 88.5003 23.6747 88.5003 21.4265C88.5003 19.1772 89.2939 17.2158 90.8871 15.5961L90.8872 15.596C92.477 13.9767 94.416 13.1662 96.7025 13.1662H96.7809ZM92.2597 16.946L92.2597 16.9461C91.0736 18.2011 90.4799 19.6959 90.4799 21.428C90.4799 23.162 91.0891 24.6047 92.3053 25.8114C93.5216 27.0198 94.9893 27.6224 96.7041 27.6224C98.4185 27.6224 99.9681 26.9884 101.118 25.7174C102.266 24.4495 102.84 22.9452 102.84 21.21C102.84 20.3334 102.69 19.5278 102.387 18.7958C102.085 18.0614 101.612 17.3921 100.97 16.7878C100.404 16.2415 99.7517 15.8128 99.0122 15.5002C98.2716 15.1871 97.502 15.0313 96.7025 15.0313L96.7016 15.0313C94.9304 15.0503 93.4465 15.6893 92.2597 16.946Z" fill="black" stroke="black" stroke-width="0.156859"/>
<path d="M106.854 7.94464H108.832V29.1097H106.854V7.94464Z" fill="black" stroke="black" stroke-width="0.156859"/>
<path d="M111.47 9.44269H113.448V11.4238H111.47V9.44269ZM111.47 13.485H113.448V29.1113H111.47V13.485Z" fill="black" stroke="black" stroke-width="0.156859"/>
<path d="M118.008 27.1837L118.008 27.1837C116.323 25.6511 115.48 23.6961 115.48 21.3124C115.48 18.9298 116.325 17.0512 118.022 15.499L118.022 15.499C119.719 13.9449 121.691 13.1683 123.942 13.1683C125.601 13.1683 127.154 13.6219 128.603 14.5273C130.018 15.4106 131.022 16.6176 131.618 18.1456L129.382 18.1193C128.838 17.2006 128.074 16.4634 127.096 15.9079C126.105 15.3446 125.062 15.0616 123.971 15.0616C122.201 15.0616 120.671 15.6506 119.387 16.828C118.102 18.0072 117.458 19.4951 117.458 21.2857C117.458 23.0756 118.071 24.5575 119.299 25.785C120.525 27.011 122.026 27.626 123.796 27.626C125.038 27.626 126.11 27.3744 127.01 26.8661L127.01 26.8661C127.906 26.3595 128.702 25.6206 129.4 24.652H131.579C130.875 26.1441 129.873 27.3173 128.572 28.1722C127.238 29.048 125.726 29.4864 124.029 29.4864C121.7 29.4864 119.695 28.72 118.008 27.1837Z" fill="black" stroke="black" stroke-width="0.156859"/>
<path d="M188.838 31.7718C189.435 31.7718 189.917 32.2543 189.917 32.851V32.9576C189.917 33.5543 189.435 34.0368 188.838 34.0368C188.242 34.0368 187.759 33.5543 187.759 32.9576V32.851C187.759 32.2543 188.242 31.7718 188.838 31.7718Z" fill="black" stroke="black" stroke-width="0.156859"/>
<path d="M205.67 19.8694H206.92V21.2153H205.67V19.8694ZM205.67 22.6443H206.92V33.6574H205.67V22.6443Z" fill="black" stroke="black" stroke-width="0.156859"/>
<path d="M197.604 34.0198C197.373 34.0198 197.147 34.0059 196.923 33.9796C196.698 33.9517 196.472 33.9114 196.241 33.8572L196.24 33.8569C195.617 33.7208 195 33.4747 194.389 33.1146C193.779 32.7557 193.215 32.2772 192.7 31.6796C192.646 31.6119 192.582 31.5285 192.506 31.426C192.434 31.3264 192.364 31.2111 192.297 31.0766L192.297 31.0766L192.296 31.0754C192.121 30.7381 191.961 30.3153 191.817 29.8027C191.675 29.2943 191.604 28.7431 191.604 28.1454C191.604 27.3871 191.749 26.6731 192.04 26.0041C192.331 25.3333 192.721 24.7468 193.208 24.2457L193.208 24.2457L193.209 24.2451C193.738 23.6892 194.358 23.2447 195.071 22.9131C195.78 22.5831 196.609 22.4153 197.561 22.4153H197.663C198.516 22.4294 199.331 22.6319 200.111 23.025C200.885 23.416 201.468 23.9938 201.858 24.7615L201.894 24.8309L201.963 24.796L202.004 24.7756L202.048 24.754V24.7055V22.6412H203.353V33.7531H202.049V31.7093V31.6308H201.971H201.93H201.882L201.86 31.6737C201.455 32.4702 200.866 33.0585 200.093 33.4413C199.315 33.8265 198.484 34.0198 197.604 34.0198ZM197.561 23.7L197.56 23.7C196.304 23.7144 195.225 24.1616 194.324 25.0399L194.3 25.063V25.0648C193.414 25.9412 192.972 27.011 192.972 28.2693C192.972 29.5401 193.437 30.5883 194.366 31.4469C195.293 32.3037 196.372 32.7351 197.602 32.7351C198.834 32.7351 199.848 32.2898 200.728 31.4005C201.606 30.513 202.048 29.4707 202.048 28.2787C202.048 27.0076 201.621 25.9244 200.769 25.0355C199.916 24.1457 198.844 23.7 197.561 23.7Z" fill="black" stroke="black" stroke-width="0.156859"/>
<path d="M9.68154 46.5277H8.12705V40.8043H2.29376V46.5277H0.739258V34.8375H2.29376V39.4225H8.12705V34.8375H9.68154V46.5277Z" fill="#E2AF6C"/>
<path d="M20.0527 42.296H13.5913C13.5913 42.8351 13.6725 43.3062 13.8347 43.7092C13.997 44.107 14.2194 44.4341 14.5021 44.6905C14.7742 44.9418 15.0961 45.1302 15.4677 45.2558C15.8446 45.3814 16.2581 45.4442 16.7082 45.4442C17.3049 45.4442 17.9042 45.3265 18.5061 45.0909C19.1132 44.8502 19.545 44.6146 19.8015 44.3844H19.88V45.9938C19.3828 46.2032 18.8751 46.3785 18.3569 46.5198C17.8387 46.6611 17.2944 46.7318 16.7239 46.7318C15.2688 46.7318 14.1331 46.3393 13.3166 45.5542C12.5001 44.7638 12.0918 43.6437 12.0918 42.1939C12.0918 40.7598 12.4817 39.6214 13.2616 38.7787C14.0467 37.9361 15.0778 37.5147 16.3549 37.5147C17.5378 37.5147 18.4485 37.8602 19.087 38.5511C19.7308 39.242 20.0527 40.2233 20.0527 41.4952V42.296ZM18.616 41.1654C18.6107 40.3908 18.4145 39.7915 18.0272 39.3676C17.6451 38.9436 17.0615 38.7316 16.2764 38.7316C15.486 38.7316 14.8554 38.9645 14.3843 39.4304C13.9185 39.8962 13.6541 40.4746 13.5913 41.1654H18.616Z" fill="#E2AF6C"/>
<path d="M29.1049 46.5277H27.6368V45.5934C27.5059 45.6824 27.328 45.808 27.1029 45.9703C26.8831 46.1273 26.6685 46.2529 26.4591 46.3471C26.2131 46.4675 25.9305 46.5669 25.6112 46.6454C25.2919 46.7292 24.9177 46.7711 24.4885 46.7711C23.6982 46.7711 23.0282 46.5094 22.4787 45.986C21.9291 45.4626 21.6543 44.7952 21.6543 43.984C21.6543 43.3192 21.7956 42.7828 22.0783 42.3745C22.3661 41.961 22.7744 41.6365 23.303 41.401C23.8369 41.1654 24.4781 41.0058 25.2265 40.9221C25.975 40.8383 26.7784 40.7755 27.6368 40.7336V40.506C27.6368 40.171 27.5766 39.8936 27.4562 39.6738C27.3411 39.4539 27.1736 39.2812 26.9537 39.1556C26.7444 39.0352 26.4931 38.9541 26.2 38.9122C25.9069 38.8703 25.6007 38.8494 25.2815 38.8494C24.8942 38.8494 24.4624 38.9017 23.9861 39.0064C23.5098 39.1059 23.0178 39.2524 22.5101 39.4461H22.4316V37.9465C22.7194 37.868 23.1355 37.7817 23.6799 37.6875C24.2242 37.5932 24.7607 37.5461 25.2893 37.5461C25.9069 37.5461 26.4434 37.5985 26.8988 37.7032C27.3594 37.8026 27.7572 37.9753 28.0921 38.2213C28.4219 38.4621 28.6731 38.7735 28.8458 39.1556C29.0186 39.5377 29.1049 40.0113 29.1049 40.5766V46.5277ZM27.6368 44.3687V41.927C27.1867 41.9532 26.6554 41.9924 26.043 42.0448C25.4359 42.0971 24.9543 42.173 24.5984 42.2724C24.1745 42.3928 23.8317 42.5812 23.57 42.8377C23.3083 43.0889 23.1774 43.437 23.1774 43.8819C23.1774 44.3844 23.3292 44.7638 23.6328 45.0203C23.9363 45.2715 24.3995 45.3971 25.0224 45.3971C25.5406 45.3971 26.0142 45.2977 26.4434 45.0988C26.8726 44.8947 27.2704 44.6513 27.6368 44.3687Z" fill="#E2AF6C"/>
<path d="M33.4387 46.5277H31.9627V34.3115H33.4387V46.5277Z" fill="#E2AF6C"/>
<path d="M40.9128 46.4492C40.6354 46.5224 40.3318 46.5826 40.0021 46.6297C39.6776 46.6768 39.3871 46.7004 39.1306 46.7004C38.2356 46.7004 37.5552 46.4596 37.0894 45.9781C36.6236 45.4966 36.3906 44.7246 36.3906 43.6621V38.9986H35.3936V37.7581H36.3906V35.2379H37.8666V37.7581H40.9128V38.9986H37.8666V42.9947C37.8666 43.4553 37.8771 43.8165 37.898 44.0782C37.919 44.3346 37.9922 44.5754 38.1179 44.8005C38.233 45.0098 38.39 45.1642 38.5889 45.2637C38.793 45.3579 39.1018 45.405 39.5153 45.405C39.7561 45.405 40.0073 45.371 40.269 45.3029C40.5307 45.2296 40.7192 45.1695 40.8343 45.1223H40.9128V46.4492Z" fill="#E2AF6C"/>
<path d="M50.0357 46.5277H48.5597V41.5344C48.5597 41.1314 48.5361 40.7546 48.489 40.4039C48.4419 40.048 48.3556 39.7706 48.2299 39.5717C48.0991 39.3519 47.9107 39.1896 47.6647 39.0849C47.4187 38.975 47.0994 38.9201 46.7069 38.9201C46.3038 38.9201 45.8825 39.0195 45.4428 39.2184C45.0032 39.4173 44.5818 39.6711 44.1788 39.9799V46.5277H42.7028V34.3115H44.1788V38.7316C44.6394 38.3496 45.1157 38.0512 45.6077 37.8366C46.0997 37.622 46.6048 37.5147 47.123 37.5147C48.0703 37.5147 48.7926 37.8 49.2898 38.3705C49.7871 38.941 50.0357 39.7627 50.0357 40.8357V46.5277Z" fill="#E2AF6C"/>
<path d="M67.6769 45.6798C67.389 45.8054 67.1273 45.9231 66.8918 46.0331C66.6615 46.143 66.3579 46.2581 65.981 46.3785C65.6618 46.478 65.3137 46.5617 64.9369 46.6297C64.5653 46.703 64.1544 46.7397 63.7043 46.7397C62.8563 46.7397 62.0843 46.6219 61.3882 46.3864C60.6973 46.1456 60.0954 45.7714 59.5825 45.2637C59.08 44.7664 58.6875 44.1357 58.4048 43.3716C58.1222 42.6022 57.9809 41.7098 57.9809 40.6944C57.9809 39.7313 58.117 38.8703 58.3891 38.1114C58.6613 37.3525 59.0538 36.7113 59.5668 36.1879C60.064 35.6802 60.6633 35.2929 61.3647 35.026C62.0713 34.759 62.8537 34.6256 63.7121 34.6256C64.3402 34.6256 64.9657 34.7015 65.5885 34.8532C66.2166 35.005 66.9127 35.272 67.6769 35.654V37.499H67.5591C66.9153 36.9599 66.2768 36.5674 65.6435 36.3214C65.0101 36.0754 64.3323 35.9524 63.61 35.9524C63.0186 35.9524 62.4847 36.0492 62.0084 36.2429C61.5374 36.4313 61.116 36.727 60.7444 37.13C60.3833 37.5226 60.1007 38.0198 59.8965 38.6217C59.6976 39.2184 59.5982 39.9093 59.5982 40.6944C59.5982 41.5161 59.7081 42.2227 59.9279 42.8142C60.153 43.4056 60.4409 43.8871 60.7915 44.2587C61.1579 44.6461 61.5845 44.9339 62.0713 45.1223C62.5632 45.3055 63.0814 45.3971 63.6257 45.3971C64.3742 45.3971 65.0756 45.2689 65.7298 45.0124C66.3841 44.756 66.9964 44.3713 67.5669 43.8583H67.6769V45.6798Z" fill="#E2AF6C"/>
<path d="M77.2315 42.1468C77.2315 43.5757 76.8651 44.7036 76.1324 45.5306C75.3996 46.3576 74.4183 46.7711 73.1883 46.7711C71.9478 46.7711 70.9612 46.3576 70.2284 45.5306C69.5009 44.7036 69.1371 43.5757 69.1371 42.1468C69.1371 40.7179 69.5009 39.59 70.2284 38.763C70.9612 37.9308 71.9478 37.5147 73.1883 37.5147C74.4183 37.5147 75.3996 37.9308 76.1324 38.763C76.8651 39.59 77.2315 40.7179 77.2315 42.1468ZM75.7084 42.1468C75.7084 41.011 75.486 40.1684 75.0411 39.6188C74.5962 39.064 73.9786 38.7866 73.1883 38.7866C72.3875 38.7866 71.7646 39.064 71.3197 39.6188C70.8801 40.1684 70.6602 41.011 70.6602 42.1468C70.6602 43.246 70.8827 44.0808 71.3276 44.6513C71.7725 45.2166 72.3927 45.4992 73.1883 45.4992C73.9734 45.4992 74.5883 45.2192 75.0332 44.6591C75.4834 44.0939 75.7084 43.2564 75.7084 42.1468Z" fill="#E2AF6C"/>
<path d="M86.3387 46.5277H84.8706V45.5934C84.7397 45.6824 84.5617 45.808 84.3367 45.9703C84.1169 46.1273 83.9023 46.2529 83.6929 46.3471C83.4469 46.4675 83.1643 46.5669 82.845 46.6454C82.5257 46.7292 82.1515 46.7711 81.7223 46.7711C80.932 46.7711 80.262 46.5094 79.7124 45.986C79.1629 45.4626 78.8881 44.7952 78.8881 43.984C78.8881 43.3192 79.0294 42.7828 79.312 42.3745C79.5999 41.961 80.0082 41.6365 80.5368 41.401C81.0707 41.1654 81.7118 41.0058 82.4603 40.9221C83.2087 40.8383 84.0122 40.7755 84.8706 40.7336V40.506C84.8706 40.171 84.8103 39.8936 84.69 39.6738C84.5748 39.4539 84.4073 39.2812 84.1875 39.1556C83.9781 39.0352 83.7269 38.9541 83.4338 38.9122C83.1407 38.8703 82.8345 38.8494 82.5153 38.8494C82.1279 38.8494 81.6961 38.9017 81.2198 39.0064C80.7435 39.1059 80.2515 39.2524 79.7438 39.4461H79.6653V37.9465C79.9532 37.868 80.3693 37.7817 80.9136 37.6875C81.458 37.5932 81.9945 37.5461 82.5231 37.5461C83.1407 37.5461 83.6772 37.5985 84.1325 37.7032C84.5931 37.8026 84.9909 37.9753 85.3259 38.2213C85.6556 38.4621 85.9069 38.7735 86.0796 39.1556C86.2523 39.5377 86.3387 40.0113 86.3387 40.5766V46.5277ZM84.8706 44.3687V41.927C84.4204 41.9532 83.8892 41.9924 83.2768 42.0448C82.6696 42.0971 82.1881 42.173 81.8322 42.2724C81.4083 42.3928 81.0654 42.5812 80.8037 42.8377C80.542 43.0889 80.4112 43.437 80.4112 43.8819C80.4112 44.3844 80.563 44.7638 80.8665 45.0203C81.1701 45.2715 81.6333 45.3971 82.2562 45.3971C82.7743 45.3971 83.248 45.2977 83.6772 45.0988C84.1064 44.8947 84.5042 44.6513 84.8706 44.3687Z" fill="#E2AF6C"/>
<path d="M95.6657 45.9781C95.1737 46.2136 94.7052 46.3968 94.2603 46.5277C93.8207 46.6585 93.3522 46.724 92.855 46.724C92.2217 46.724 91.6407 46.6324 91.1121 46.4492C90.5835 46.2607 90.1307 45.9781 89.7539 45.6013C89.3718 45.2244 89.0761 44.7481 88.8667 44.1724C88.6573 43.5966 88.5527 42.9241 88.5527 42.1547C88.5527 40.7206 88.9452 39.5952 89.7303 38.7787C90.5206 37.9622 91.5622 37.554 92.855 37.554C93.3575 37.554 93.8495 37.6246 94.331 37.766C94.8178 37.9073 95.2626 38.08 95.6657 38.2841V39.925H95.5872C95.137 39.5743 94.6712 39.3048 94.1897 39.1163C93.7134 38.9279 93.2476 38.8337 92.7922 38.8337C91.9548 38.8337 91.2927 39.1163 90.8059 39.6816C90.3244 40.2416 90.0836 41.066 90.0836 42.1547C90.0836 43.2119 90.3191 44.0258 90.7902 44.5963C91.2665 45.1616 91.9338 45.4442 92.7922 45.4442C93.0905 45.4442 93.3941 45.405 93.7029 45.3265C94.0117 45.248 94.2891 45.1459 94.5351 45.0203C94.7497 44.9104 94.9512 44.7952 95.1396 44.6748C95.3281 44.5492 95.4772 44.4419 95.5872 44.353H95.6657V45.9781Z" fill="#E2AF6C"/>
<path d="M104.898 46.5277H103.422V41.5344C103.422 41.1314 103.399 40.7546 103.352 40.4039C103.305 40.048 103.218 39.7706 103.093 39.5717C102.962 39.3519 102.773 39.1896 102.527 39.0849C102.281 38.975 101.962 38.9201 101.57 38.9201C101.167 38.9201 100.745 39.0195 100.306 39.2184C99.866 39.4173 99.4446 39.6711 99.0416 39.9799V46.5277H97.5656V34.3115H99.0416V38.7316C99.5022 38.3496 99.9785 38.0512 100.47 37.8366C100.962 37.622 101.468 37.5147 101.986 37.5147C102.933 37.5147 103.655 37.8 104.153 38.3705C104.65 38.941 104.898 39.7627 104.898 40.8357V46.5277Z" fill="#E2AF6C"/>
</g>
<defs>
<clipPath id="clip0_1638_10485">
<rect width="206.261" height="60.0709" fill="white" transform="translate(0.739258 0.107422)"/>
</clipPath>
</defs>
</svg>
