<svg width="500" height="500" viewBox="0 0 500 500" fill="none" xmlns="http://www.w3.org/2000/svg">
<g clip-path="url(#clip0_1638_11619)">
<path d="M431.969 260.381V282.994H396.294L376.909 302.029L376.651 282.994H335.501L335.444 226.003L352.045 253.293H356.232L372.837 225.569L372.909 259.069H381.788L381.716 208.534H373.989L354.281 242.034L334.212 208.534H326.485L326.474 292.025H367.745L368.168 323.269L399.979 292.025H440.988V252.437C438.593 255.666 435.57 258.324 431.965 260.384L431.969 260.381Z" fill="#E2AF6C"/>
<path d="M440.993 177.643H326.615V202.18H335.638V186.666H431.966V214.356C430.673 213.344 429.251 212.447 427.7 211.675C423.513 209.583 418.722 208.53 413.334 208.53H391.246V259.065H413.334C418.726 259.065 423.517 258.019 427.7 255.92C431.886 253.829 435.133 250.867 437.445 247.041C439.624 243.429 440.776 239.292 440.898 234.626L440.989 177.635L440.993 177.643ZM429.183 242.935C427.665 245.555 425.498 247.578 422.684 248.996C419.87 250.418 416.608 251.121 412.904 251.121H400.63V216.47H412.904C416.608 216.47 419.87 217.181 422.684 218.603C425.498 220.017 427.665 222.04 429.183 224.664C430.7 227.284 431.457 230.326 431.457 233.794C431.457 237.262 430.7 240.304 429.183 242.931V242.935Z" fill="#E2AF6C"/>
<path d="M26.5354 250.634L45.3006 206.755H52.9587V258.061H48.1638V212.299L47.7986 212.224L28.4057 258.061H24.2507L4.85022 212.228L4.48502 212.302V258.065H-0.309877V206.755H7.34847L26.1858 250.634L26.3609 251.042L26.5354 250.634Z" fill="black" stroke="black" stroke-width="0.380246"/>
<path d="M63.8593 240.79L63.5682 240.499L63.5867 240.984C63.7295 244.724 65.3033 247.906 68.3019 250.527L63.8593 240.79ZM63.8593 240.79H98.2078C98.1475 238.136 97.8347 235.682 97.2706 233.429C96.6929 231.137 95.5288 228.907 93.7753 226.739C91.8797 224.436 89.616 222.64 86.9832 221.352L86.983 221.352C84.3518 220.061 81.5364 219.417 78.534 219.417C73.0363 219.417 68.3776 221.344 64.5427 225.201C60.7075 229.059 58.7917 233.684 58.7917 239.231C58.7917 244.779 60.7153 249.449 64.5757 253.26L64.5758 253.26C68.4292 257.068 73.1263 258.974 78.6747 258.974C82.6896 258.974 86.4386 257.729 89.9297 255.233C93.3428 252.793 95.7026 249.716 97.0123 245.999L92.0203 246.063C90.8782 248.611 89.0495 250.633 86.5364 252.122C83.9925 253.632 81.3214 254.41 78.5372 254.456L78.534 254.456L78.1842 254.456C74.5893 254.456 71.291 253.143 68.302 250.527L63.8593 240.79ZM93.378 236.098C92.6928 232.764 90.9681 229.923 88.2051 227.576L88.205 227.576C85.3959 225.194 82.1928 223.999 78.6025 223.999C75.0151 223.999 71.7219 225.151 68.8669 227.448L68.8668 227.448C66.0105 229.75 64.2483 232.687 63.5897 236.254L63.5483 236.478H63.7767H93.2229V236.31L93.413 236.292V236.288V236.098H93.378Z" fill="black" stroke="black" stroke-width="0.380246"/>
<path d="M107.334 224.679V224.489H107.144H99.36V220.185H107.144H107.334V219.995V206.755H112.129V219.995V220.185H112.319H121.011V224.489H112.319H112.129V224.679V258.061H107.334V224.679Z" fill="black" stroke="black" stroke-width="0.380246"/>
<path d="M162.42 258.065H157.831V251.049V250.859H157.64H157.5H157.383L157.33 250.963C155.949 253.681 153.936 255.689 151.293 257.001C148.639 258.315 145.812 258.974 142.811 258.974C142.023 258.974 141.252 258.928 140.492 258.834C139.731 258.74 138.954 258.601 138.169 258.419L138.167 258.419C136.044 257.956 133.941 257.116 131.857 255.889C129.779 254.666 127.86 253.038 126.101 251C125.917 250.772 125.7 250.482 125.442 250.135C125.195 249.795 124.957 249.397 124.725 248.937L124.724 248.935C124.127 247.786 123.584 246.339 123.096 244.598C122.61 242.868 122.369 240.988 122.369 238.95C122.369 236.362 122.862 233.928 123.859 231.645L123.859 231.645C124.85 229.357 126.18 227.361 127.84 225.652L127.841 225.651C129.646 223.756 131.76 222.245 134.184 221.11C136.603 219.983 139.43 219.413 142.674 219.413H143.022C145.932 219.458 148.713 220.151 151.368 221.491C154.013 222.827 155.999 224.802 157.334 227.423L157.421 227.593L157.59 227.506L157.731 227.434L157.834 227.381V227.265V220.181H162.42V258.065ZM142.676 223.934C138.455 223.98 134.825 225.476 131.794 228.409H131.79L131.734 228.464C128.69 231.439 127.168 235.078 127.168 239.372C127.168 243.669 128.738 247.203 131.879 250.109L132.008 249.969L131.879 250.109C135.012 253.007 138.659 254.46 142.815 254.46C146.975 254.46 150.399 252.955 153.372 249.951C156.341 246.951 157.834 243.433 157.834 239.406C157.834 235.108 156.395 231.448 153.515 228.445C150.633 225.436 147.016 223.934 142.678 223.934L142.676 223.934Z" fill="black" stroke="black" stroke-width="0.380246"/>
<path d="M173.326 251.688V258.073H168.812V206.755H173.607V227.128V227.318H173.797H173.938H174.06L174.111 227.207C175.12 225.005 176.724 223.262 178.927 221.977C181.146 220.685 183.475 219.876 185.919 219.552C186.334 219.507 186.737 219.473 187.132 219.451L187.132 219.451C187.524 219.428 187.904 219.417 188.273 219.417C193.773 219.417 198.565 221.277 202.659 224.999C206.744 228.715 208.787 233.386 208.787 239.022C208.787 241.428 208.407 243.656 207.647 245.705L207.647 245.706C206.883 247.77 206.017 249.416 205.052 250.655L205.041 250.669L205.032 250.685C204.943 250.86 204.838 251.022 204.708 251.173C204.57 251.333 204.432 251.482 204.297 251.62L204.297 251.62L204.291 251.627C203.224 252.834 202.181 253.865 201.163 254.717L201.163 254.718C200.144 255.574 199.128 256.277 198.118 256.83L198.116 256.831C196.638 257.662 195.132 258.225 193.591 258.525C192.04 258.826 190.433 258.977 188.764 258.977C188.116 258.977 187.457 258.944 186.791 258.876C186.12 258.804 185.437 258.702 184.744 258.563L184.742 258.563C182.574 258.148 180.471 257.361 178.435 256.207C176.41 255.06 174.877 253.544 173.822 251.664L173.793 251.612L173.74 251.586L173.599 251.517L173.326 251.384V251.688ZM182.431 225.204L182.431 225.204C180.522 226.008 178.831 227.163 177.369 228.672C175.861 230.184 174.795 231.839 174.176 233.641L174.176 233.641C173.564 235.435 173.257 237.391 173.257 239.509C173.257 243.803 174.784 247.375 177.831 250.211C180.875 253.043 184.523 254.46 188.767 254.46C193.017 254.46 196.563 252.957 199.534 249.951C202.509 246.95 203.996 243.335 203.996 239.125C203.996 234.917 202.484 231.094 199.458 228.226C196.436 225.362 192.753 223.93 188.414 223.93V223.93L188.41 223.93C186.332 223.976 184.343 224.404 182.431 225.204Z" fill="black" stroke="black" stroke-width="0.380246"/>
<path d="M232.316 219.413V219.347C237.501 219.437 242.031 221.395 245.913 225.233C249.841 229.116 251.804 233.684 251.804 238.946C251.804 244.213 249.899 249.04 246.084 253.013L246.084 253.013C242.276 256.987 237.626 258.97 232.13 258.97C226.633 258.97 222.12 257.077 218.166 253.289C214.218 249.503 212.243 244.887 212.243 239.437C212.243 233.984 214.167 229.23 218.029 225.303L218.029 225.303C221.883 221.378 226.583 219.413 232.126 219.413H232.316ZM221.356 228.576L221.356 228.576C218.481 231.618 217.042 235.242 217.042 239.44C217.042 243.644 218.518 247.141 221.467 250.066C224.415 252.995 227.973 254.456 232.13 254.456C236.286 254.456 240.042 252.919 242.83 249.838C245.611 246.765 247.005 243.118 247.005 238.912C247.005 236.787 246.64 234.834 245.907 233.06C245.173 231.279 244.027 229.657 242.47 228.192C241.1 226.868 239.517 225.828 237.725 225.071C235.93 224.312 234.064 223.934 232.126 223.934L232.124 223.934C227.83 223.98 224.233 225.529 221.356 228.576Z" fill="black" stroke="black" stroke-width="0.380246"/>
<path d="M256.732 206.755H261.527V258.061H256.732V206.755Z" fill="black" stroke="black" stroke-width="0.380246"/>
<path d="M267.923 210.386H272.717V215.188H267.923V210.386ZM267.923 220.185H272.717V258.065H267.923V220.185Z" fill="black" stroke="black" stroke-width="0.380246"/>
<path d="M305.597 252.622C307.768 251.394 309.699 249.603 311.389 247.254H316.673C314.966 250.872 312.536 253.715 309.384 255.788C306.15 257.911 302.483 258.974 298.37 258.974C292.724 258.974 287.864 257.116 283.774 253.392L283.774 253.392C279.69 249.676 277.646 244.937 277.646 239.159C277.646 233.383 279.696 228.829 283.809 225.067L283.809 225.067C287.923 221.299 292.703 219.417 298.16 219.417C302.181 219.417 305.945 220.516 309.459 222.711C312.888 224.852 315.322 227.778 316.766 231.482L311.347 231.419C310.028 229.192 308.177 227.404 305.806 226.058C303.402 224.692 300.876 224.006 298.229 224.006C293.939 224.006 290.231 225.434 287.119 228.288C284.002 231.147 282.441 234.754 282.441 239.094C282.441 243.433 283.928 247.026 286.904 250.001C289.876 252.973 293.514 254.464 297.807 254.464C300.818 254.464 303.414 253.854 305.596 252.622L305.597 252.622Z" fill="black" stroke="black" stroke-width="0.380246"/>
<path d="M455.475 254.404C456.922 254.404 458.091 255.573 458.091 257.02V257.278C458.091 258.725 456.922 259.894 455.475 259.894C454.029 259.894 452.859 258.725 452.859 257.278V257.02C452.859 255.573 454.029 254.404 455.475 254.404Z" fill="black" stroke="black" stroke-width="0.380246"/>
<path d="M496.279 225.55H499.31V228.813H496.279V225.55ZM496.279 232.277H499.31V258.974H496.279V232.277Z" fill="black" stroke="black" stroke-width="0.380246"/>
<path d="M476.723 259.852C476.164 259.852 475.617 259.819 475.073 259.755C474.528 259.687 473.98 259.59 473.42 259.458L473.417 259.458C471.906 259.128 470.412 258.531 468.929 257.658C467.452 256.788 466.084 255.628 464.834 254.18C464.704 254.015 464.55 253.813 464.366 253.565C464.19 253.323 464.021 253.044 463.858 252.718L463.858 252.718L463.857 252.715C463.431 251.897 463.044 250.872 462.696 249.63C462.351 248.397 462.178 247.061 462.178 245.612C462.178 243.774 462.531 242.043 463.235 240.422C463.941 238.795 464.887 237.374 466.068 236.159L466.069 236.157C467.353 234.81 468.854 233.732 470.582 232.929C472.302 232.129 474.312 231.722 476.62 231.722H476.866C478.935 231.756 480.91 232.247 482.801 233.2C484.678 234.147 486.089 235.548 487.037 237.409L487.122 237.577L487.291 237.493L487.39 237.444L487.495 237.391V237.273V232.269H490.659V259.206H487.499V254.251V254.061H487.309H487.21H487.093L487.04 254.165C486.058 256.096 484.631 257.522 482.757 258.45C480.87 259.384 478.857 259.852 476.723 259.852ZM476.62 234.836L476.618 234.836C473.573 234.871 470.955 235.955 468.772 238.084L468.715 238.14V238.144C466.568 240.269 465.494 242.862 465.494 245.913C465.494 248.993 466.623 251.534 468.875 253.615C471.122 255.692 473.738 256.738 476.719 256.738C479.704 256.738 482.163 255.659 484.296 253.503C486.424 251.351 487.495 248.825 487.495 245.935C487.495 242.854 486.462 240.228 484.396 238.073C482.328 235.916 479.73 234.836 476.62 234.836Z" fill="black" stroke="black" stroke-width="0.380246"/>
<path d="M23.3179 304.535H19.1775V289.291H3.64043V304.535H-0.5V273.398H3.64043V285.61H19.1775V273.398H23.3179V304.535Z" fill="#E2AF6C"/>
<path d="M50.9417 293.264H33.7317C33.7317 294.7 33.9478 295.954 34.38 297.028C34.8121 298.087 35.4046 298.959 36.1574 299.642C36.8823 300.311 37.7397 300.813 38.7295 301.147C39.7332 301.482 40.8346 301.649 42.0335 301.649C43.6227 301.649 45.2189 301.336 46.8221 300.708C48.4393 300.067 49.5894 299.44 50.2725 298.826H50.4816V303.113C49.1572 303.671 47.805 304.138 46.4248 304.514C45.0447 304.89 43.5948 305.079 42.0753 305.079C38.1997 305.079 35.1746 304.033 32.9998 301.942C30.825 299.837 29.7377 296.854 29.7377 292.992C29.7377 289.172 30.7762 286.14 32.8534 283.896C34.9446 281.651 37.6909 280.529 41.0925 280.529C44.2431 280.529 46.6688 281.449 48.3696 283.289C50.0843 285.129 50.9417 287.743 50.9417 291.131V293.264ZM47.1149 290.253C47.101 288.189 46.5782 286.593 45.5466 285.464C44.5289 284.335 42.9745 283.77 40.8834 283.77C38.7783 283.77 37.0984 284.39 35.8437 285.631C34.603 286.872 33.899 288.412 33.7317 290.253H47.1149Z" fill="#E2AF6C"/>
<path d="M75.0523 304.535H71.1419V302.047C70.7934 302.284 70.3194 302.618 69.7199 303.05C69.1344 303.468 68.5629 303.803 68.0052 304.054C67.35 304.375 66.5972 304.64 65.7468 304.849C64.8964 305.072 63.8997 305.183 62.7565 305.183C60.6514 305.183 58.867 304.486 57.4032 303.092C55.9394 301.698 55.2076 299.921 55.2076 297.76C55.2076 295.989 55.584 294.56 56.3368 293.473C57.1035 292.372 58.1909 291.507 59.5989 290.88C61.0209 290.253 62.7286 289.827 64.7222 289.604C66.7157 289.381 68.8556 289.214 71.1419 289.102V288.496C71.1419 287.604 70.9816 286.865 70.661 286.279C70.3543 285.694 69.9082 285.234 69.3226 284.899C68.765 284.579 68.0958 284.363 67.3152 284.251C66.5345 284.14 65.7189 284.084 64.8685 284.084C63.8369 284.084 62.6868 284.223 61.4182 284.502C60.1496 284.767 58.8391 285.157 57.4869 285.673H57.2778V281.679C58.0445 281.47 59.1528 281.24 60.6027 280.989C62.0525 280.738 63.4814 280.613 64.8895 280.613C66.5345 280.613 67.9634 280.752 69.1763 281.031C70.4031 281.296 71.4626 281.756 72.3548 282.411C73.233 283.052 73.9022 283.882 74.3622 284.899C74.8223 285.917 75.0523 287.179 75.0523 288.684V304.535ZM71.1419 298.784V292.281C69.943 292.351 68.528 292.455 66.8969 292.595C65.2798 292.734 63.9972 292.936 63.0493 293.201C61.9201 293.522 61.0069 294.024 60.3099 294.707C59.6129 295.376 59.2643 296.303 59.2643 297.488C59.2643 298.826 59.6686 299.837 60.4772 300.52C61.2858 301.189 62.5195 301.524 64.1785 301.524C65.5586 301.524 66.8203 301.259 67.9634 300.729C69.1066 300.185 70.1661 299.537 71.1419 298.784Z" fill="#E2AF6C"/>
<path d="M86.5953 304.535H82.664V271.997H86.5953V304.535Z" fill="#E2AF6C"/>
<path d="M106.503 304.326C105.764 304.521 104.955 304.681 104.077 304.807C103.213 304.932 102.439 304.995 101.756 304.995C99.3721 304.995 97.5598 304.354 96.3191 303.071C95.0783 301.789 94.458 299.732 94.458 296.902V284.481H91.8022V281.177H94.458V274.465H98.3893V281.177H106.503V284.481H98.3893V295.125C98.3893 296.352 98.4171 297.314 98.4729 298.011C98.5287 298.694 98.7238 299.335 99.0584 299.934C99.3651 300.492 99.7833 300.903 100.313 301.168C100.857 301.419 101.679 301.545 102.781 301.545C103.422 301.545 104.091 301.454 104.788 301.273C105.485 301.078 105.987 300.917 106.294 300.792H106.503V304.326Z" fill="#E2AF6C"/>
<path d="M130.802 304.535H126.87V291.235C126.87 290.162 126.808 289.158 126.682 288.224C126.557 287.276 126.327 286.537 125.992 286.008C125.644 285.422 125.142 284.99 124.486 284.711C123.831 284.418 122.981 284.272 121.935 284.272C120.862 284.272 119.74 284.537 118.569 285.067C117.398 285.596 116.275 286.272 115.202 287.095V304.535H111.271V271.997H115.202V283.77C116.429 282.752 117.697 281.958 119.008 281.386C120.318 280.815 121.663 280.529 123.044 280.529C125.567 280.529 127.491 281.289 128.815 282.808C130.14 284.328 130.802 286.516 130.802 289.374V304.535Z" fill="#E2AF6C"/>
<path d="M177.789 302.277C177.023 302.611 176.325 302.925 175.698 303.218C175.085 303.51 174.276 303.817 173.272 304.138C172.422 304.403 171.495 304.626 170.491 304.807C169.501 305.002 168.407 305.1 167.208 305.1C164.95 305.1 162.893 304.786 161.039 304.159C159.199 303.517 157.596 302.521 156.23 301.168C154.891 299.844 153.846 298.164 153.093 296.129C152.34 294.079 151.964 291.702 151.964 288.998C151.964 286.433 152.326 284.14 153.051 282.118C153.776 280.097 154.822 278.389 156.188 276.995C157.512 275.643 159.109 274.611 160.977 273.9C162.859 273.189 164.943 272.834 167.229 272.834C168.902 272.834 170.568 273.036 172.227 273.44C173.9 273.844 175.754 274.555 177.789 275.573V280.487H177.476C175.761 279.051 174.06 278.006 172.373 277.35C170.686 276.695 168.881 276.368 166.957 276.368C165.382 276.368 163.96 276.625 162.691 277.141C161.437 277.643 160.314 278.431 159.325 279.504C158.363 280.55 157.61 281.874 157.066 283.477C156.536 285.067 156.272 286.907 156.272 288.998C156.272 291.187 156.564 293.069 157.15 294.644C157.749 296.219 158.516 297.502 159.45 298.492C160.426 299.523 161.562 300.29 162.859 300.792C164.169 301.28 165.549 301.524 166.999 301.524C168.993 301.524 170.861 301.182 172.603 300.499C174.346 299.816 175.977 298.791 177.497 297.425H177.789V302.277Z" fill="#E2AF6C"/>
<path d="M203.238 292.866C203.238 296.672 202.262 299.677 200.311 301.879C198.359 304.082 195.745 305.183 192.469 305.183C189.165 305.183 186.537 304.082 184.585 301.879C182.648 299.677 181.679 296.672 181.679 292.866C181.679 289.061 182.648 286.056 184.585 283.854C186.537 281.637 189.165 280.529 192.469 280.529C195.745 280.529 198.359 281.637 200.311 283.854C202.262 286.056 203.238 289.061 203.238 292.866ZM199.181 292.866C199.181 289.841 198.589 287.597 197.404 286.133C196.219 284.655 194.574 283.916 192.469 283.916C190.336 283.916 188.677 284.655 187.492 286.133C186.321 287.597 185.736 289.841 185.736 292.866C185.736 295.794 186.328 298.018 187.513 299.537C188.698 301.043 190.35 301.796 192.469 301.796C194.56 301.796 196.198 301.05 197.383 299.558C198.582 298.052 199.181 295.822 199.181 292.866Z" fill="#E2AF6C"/>
<path d="M227.495 304.535H223.585V302.047C223.236 302.284 222.762 302.618 222.163 303.05C221.577 303.468 221.006 303.803 220.448 304.054C219.793 304.375 219.04 304.64 218.19 304.849C217.339 305.072 216.343 305.183 215.199 305.183C213.094 305.183 211.31 304.486 209.846 303.092C208.382 301.698 207.65 299.921 207.65 297.76C207.65 295.989 208.027 294.56 208.78 293.473C209.546 292.372 210.634 291.507 212.042 290.88C213.464 290.253 215.172 289.827 217.165 289.604C219.159 289.381 221.299 289.214 223.585 289.102V288.496C223.585 287.604 223.425 286.865 223.104 286.279C222.797 285.694 222.351 285.234 221.766 284.899C221.208 284.579 220.539 284.363 219.758 284.251C218.977 284.14 218.162 284.084 217.311 284.084C216.28 284.084 215.13 284.223 213.861 284.502C212.593 284.767 211.282 285.157 209.93 285.673H209.721V281.679C210.487 281.47 211.596 281.24 213.046 280.989C214.495 280.738 215.924 280.613 217.332 280.613C218.977 280.613 220.406 280.752 221.619 281.031C222.846 281.296 223.906 281.756 224.798 282.411C225.676 283.052 226.345 283.882 226.805 284.899C227.265 285.917 227.495 287.179 227.495 288.684V304.535ZM223.585 298.784V292.281C222.386 292.351 220.971 292.455 219.34 292.595C217.723 292.734 216.44 292.936 215.492 293.201C214.363 293.522 213.45 294.024 212.753 294.707C212.056 295.376 211.707 296.303 211.707 297.488C211.707 298.826 212.112 299.837 212.92 300.52C213.729 301.189 214.962 301.524 216.621 301.524C218.002 301.524 219.263 301.259 220.406 300.729C221.55 300.185 222.609 299.537 223.585 298.784Z" fill="#E2AF6C"/>
<path d="M252.338 303.071C251.027 303.699 249.78 304.186 248.595 304.535C247.424 304.883 246.176 305.058 244.852 305.058C243.165 305.058 241.617 304.814 240.209 304.326C238.801 303.824 237.595 303.071 236.592 302.067C235.574 301.064 234.786 299.795 234.229 298.262C233.671 296.728 233.392 294.937 233.392 292.887C233.392 289.068 234.438 286.07 236.529 283.896C238.634 281.721 241.408 280.633 244.852 280.633C246.19 280.633 247.5 280.822 248.783 281.198C250.079 281.574 251.264 282.034 252.338 282.578V286.949H252.129C250.93 286.015 249.689 285.297 248.407 284.795C247.138 284.293 245.897 284.042 244.684 284.042C242.454 284.042 240.69 284.795 239.394 286.3C238.111 287.792 237.47 289.988 237.47 292.887C237.47 295.703 238.097 297.871 239.352 299.391C240.621 300.896 242.398 301.649 244.684 301.649C245.479 301.649 246.288 301.545 247.11 301.336C247.933 301.126 248.671 300.855 249.327 300.52C249.898 300.227 250.435 299.921 250.937 299.6C251.439 299.265 251.836 298.98 252.129 298.743H252.338V303.071Z" fill="#E2AF6C"/>
<path d="M276.929 304.535H272.998V291.235C272.998 290.162 272.935 289.158 272.81 288.224C272.684 287.276 272.454 286.537 272.12 286.008C271.771 285.422 271.269 284.99 270.614 284.711C269.959 284.418 269.109 284.272 268.063 284.272C266.99 284.272 265.867 284.537 264.696 285.067C263.525 285.596 262.403 286.272 261.33 287.095V304.535H257.398V271.997H261.33V283.77C262.556 282.752 263.825 281.958 265.135 281.386C266.446 280.815 267.791 280.529 269.171 280.529C271.695 280.529 273.618 281.289 274.943 282.808C276.267 284.328 276.929 286.516 276.929 289.374V304.535Z" fill="#E2AF6C"/>
</g>
<defs>
<clipPath id="clip0_1638_11619">
<rect width="500" height="500" fill="white"/>
</clipPath>
</defs>
</svg>
