<svg width="20" height="20" viewBox="0 0 20 20" fill="none" xmlns="http://www.w3.org/2000/svg">
<path fill-rule="evenodd" clip-rule="evenodd" d="M6.15504 13.4517H16.8517C16.872 13.4517 16.8886 13.4351 16.8886 13.4148V7.62639C16.8886 7.10371 16.7341 6.63343 16.4732 6.23527C16.4648 6.22247 16.465 6.20671 16.4737 6.19411C16.4823 6.18151 16.4969 6.17567 16.5119 6.17891C17.183 6.32259 17.692 6.76835 17.8626 7.37543C18.5734 9.90427 18.5811 12.4673 17.8566 15.0659C17.6725 15.7261 17.0884 16.1963 16.329 16.2956C14.874 16.4857 13.4164 16.6101 11.9564 16.6685C11.9452 16.669 11.9356 16.6739 11.9288 16.6827L10.0288 19.1186C10.0216 19.1279 10.0114 19.1329 9.99968 19.1329C9.98792 19.1329 9.9778 19.1279 9.97056 19.1186L8.06952 16.6813C8.0626 16.6725 8.05312 16.6676 8.04188 16.6671C6.58952 16.608 5.13468 16.4837 3.67736 16.2937C2.92124 16.1952 2.33892 15.7292 2.15152 15.0727C1.41876 12.5051 1.4182 9.93707 2.15012 7.36875C2.3192 6.77539 2.81124 6.33743 3.46184 6.18583C3.47684 6.18235 3.4916 6.18799 3.50048 6.20059C3.50932 6.21319 3.5096 6.22907 3.5012 6.24195C3.243 6.63867 3.09016 7.10663 3.09016 7.62639V13.4147C3.09016 13.4351 3.10676 13.4517 3.12708 13.4517L6.15504 13.4517ZM6.70764 8.13735V12.8621C6.70764 12.8825 6.72424 12.8991 6.74456 12.8991H13.2466C13.2669 12.8991 13.2835 12.8825 13.2835 12.8621V8.13735C13.2835 6.53183 11.804 4.80759 9.99556 4.80759C8.18716 4.80759 6.70764 6.53179 6.70764 8.13735ZM12.8714 5.58143C12.8596 5.58567 12.8514 5.59467 12.8482 5.60683C12.845 5.61899 12.8478 5.63087 12.856 5.64039C13.4586 6.33551 13.8362 7.22291 13.8362 8.13735V12.8621C13.8362 12.8825 13.8528 12.8991 13.8731 12.8991H16.299C16.3194 12.8991 16.336 12.8825 16.336 12.8621V7.62639C16.336 6.41199 15.2028 5.41847 13.8179 5.41847C13.4836 5.41847 13.164 5.47647 12.8714 5.58143ZM13.7866 2.26883C14.4835 2.26883 15.0484 2.83367 15.0484 3.53047C15.0484 4.22727 14.4835 4.79219 13.7866 4.79219C13.0898 4.79219 12.525 4.22731 12.525 3.53047C12.525 2.83363 13.0898 2.26883 13.7866 2.26883ZM6.1204 2.25499C6.8172 2.25499 7.38208 2.81983 7.38208 3.51663C7.38208 4.21343 6.8172 4.77835 6.1204 4.77835C5.4236 4.77835 4.85876 4.21347 4.85876 3.51663C4.85872 2.81983 5.4236 2.25499 6.1204 2.25499ZM3.6428 7.62639V12.8621C3.6428 12.8825 3.6594 12.899 3.67972 12.899H6.11808C6.13844 12.899 6.155 12.8824 6.155 12.8621V8.13731C6.155 7.22435 6.5314 6.33835 7.1322 5.64375C7.1404 5.63427 7.14316 5.62243 7.14004 5.61027C7.13688 5.59815 7.12868 5.58915 7.11688 5.58487C6.82172 5.47775 6.4988 5.41843 6.16084 5.41843C4.77588 5.41847 3.6428 6.41203 3.6428 7.62639ZM9.97224 0.867188C10.8935 0.867188 11.6403 1.61395 11.6403 2.53519C11.6403 3.45643 10.8935 4.20327 9.97224 4.20327C9.051 4.20327 8.30416 3.45643 8.30416 2.53519C8.30416 1.61399 9.051 0.867188 9.97224 0.867188Z" fill="#FCC378"/>
</svg>
