<svg width="20" height="20" viewBox="0 0 20 20" fill="none" xmlns="http://www.w3.org/2000/svg">
<path d="M7.72719 1H2.27268C1.57089 1 1 1.58873 1 2.31244V5.68742C1 6.41127 1.57089 7 2.27268 7H7.72719C8.42911 7 9 6.41127 9 5.68742V2.31244C9 1.58873 8.42911 1 7.72719 1Z" fill="#FCC378"/>
<path d="M7.72719 8H2.27268C1.57089 8 1 8.61676 1 9.37509V17.6251C1 18.3832 1.57089 19 2.27268 19H7.72719C8.42911 19 9 18.3832 9 17.6251V9.37509C9 8.61676 8.42911 8 7.72719 8Z" fill="#FCC378"/>
<path d="M17.7273 13H12.2728C11.5709 13 11 13.5887 11 14.3126V17.6876C11 18.4113 11.5709 19 12.2728 19H17.7273C18.4291 19 19 18.4113 19 17.6876V14.3126C19 13.5887 18.4291 13 17.7273 13Z" fill="#FCC378"/>
<path d="M17.7273 1H12.2728C11.5709 1 11 1.61676 11 2.37495V10.6249C11 11.3832 11.5709 12 12.2728 12H17.7273C18.4291 12 19 11.3832 19 10.6249V2.37495C19 1.61676 18.4291 1 17.7273 1Z" fill="#FCC378"/>
</svg>
