<svg width="208" height="54" viewBox="0 0 208 54" fill="none" xmlns="http://www.w3.org/2000/svg">
<g filter="url(#filter0_d_2571_8403)">
<path d="M5 11C5 6.58172 8.58172 3 13 3H195C199.418 3 203 6.58172 203 11V39C203 43.4183 199.418 47 195 47H13C8.58172 47 5 43.4183 5 39V11Z" fill="white"/>
<g clip-path="url(#clip0_2571_8403)">
<path d="M25.1898 18.3704C25.9812 17.7976 26.8798 17.3446 27.8674 17.0457C32.637 15.6018 37.6741 18.2979 39.1179 23.0675C40.3448 27.1203 38.5826 31.3663 35.099 33.4368L30.609 34.0879L23.6838 28.9859L23.6836 20.9625L25.1898 18.3704Z" fill="#FCC378"/>
<path d="M24.8681 21.1925C24.8681 20.2217 24.9794 19.2769 25.1898 18.3701C22.159 20.5637 20.7005 24.5135 21.8454 28.2955C23.2893 33.0652 28.3264 35.7612 33.0959 34.3173C33.8128 34.1003 34.4823 33.8016 35.0985 33.4354C29.2822 32.3935 24.8681 27.3085 24.8681 21.1925Z" fill="#FCC378"/>
<path d="M25.0295 23.1955C25.7203 21.6827 27.032 20.4619 28.745 19.9433C31.9089 18.9855 35.2622 20.7803 36.2201 23.9443C37.1779 27.1083 35.383 30.4616 32.2191 31.4195C31.6837 31.5815 31.143 31.6648 30.6093 31.676L27.8379 30.7135L24.752 26.0247L25.0295 23.1955Z" fill="white"/>
<path d="M25.0298 23.1953C24.4447 24.4766 24.3047 25.9672 24.744 27.4181C25.5397 30.0467 27.9889 31.7301 30.6092 31.6753C27.6915 29.8073 25.606 26.7543 25.0298 23.1953Z" fill="white"/>
<path d="M30.4818 28.6482C32.1205 28.6482 33.449 27.3198 33.449 25.681C33.449 24.0423 32.1205 22.7139 30.4818 22.7139C28.8431 22.7139 27.5146 24.0423 27.5146 25.681C27.5146 27.3198 28.8431 28.6482 30.4818 28.6482Z" fill="white"/>
<path d="M30.5893 25.6918C30.1953 25.3206 30.1768 24.7004 30.548 24.3064L36.4411 18.0508L37.8678 19.3949L31.9747 25.6504C31.6035 26.0445 30.9833 26.0629 30.5893 25.6918Z" fill="white"/>
<path d="M40.4172 18.269L39.1161 19.6502C38.3346 20.4796 37.0288 20.5186 36.1993 19.7372C35.3698 18.9558 35.3309 17.6499 36.1123 16.8204L37.4134 15.4392C37.6754 15.1611 38.1425 15.3012 38.2082 15.6776L38.4187 16.8836C38.4621 17.1326 38.6644 17.3231 38.9156 17.3517L40.1319 17.4899C40.5115 17.533 40.6792 17.9909 40.4172 18.269Z" fill="#FCC378"/>
<path d="M38.1779 30.037L38.4012 30.4453C38.4761 30.5823 38.5888 30.695 38.7258 30.7699L39.134 30.9932C39.7003 31.3029 39.7003 32.1162 39.134 32.4259L38.7258 32.6492C38.5888 32.7242 38.4761 32.8368 38.4012 32.9738L38.1779 33.3821C37.8682 33.9484 37.0549 33.9484 36.7451 33.3821L36.5218 32.9738C36.4469 32.8368 36.3343 32.7242 36.1973 32.6492L35.789 32.4259C35.2227 32.1162 35.2227 31.3029 35.789 30.9932L36.1973 30.7699C36.3343 30.695 36.4469 30.5823 36.5218 30.4453L36.7451 30.037C37.0549 29.4707 37.8682 29.4707 38.1779 30.037Z" fill="white"/>
<path d="M25.1427 16.5058L25.366 16.9141C25.441 17.0511 25.5536 17.1637 25.6906 17.2386L26.0989 17.4619C26.6652 17.7717 26.6652 18.585 26.0989 18.8947L25.6906 19.118C25.5536 19.1929 25.441 19.3055 25.366 19.4426L25.1427 19.8508C24.833 20.4171 24.0197 20.4171 23.71 19.8508L23.4867 19.4426C23.4118 19.3055 23.2991 19.1929 23.1621 19.118L22.7538 18.8947C22.1875 18.585 22.1875 17.7717 22.7538 17.4619L23.1621 17.2386C23.2991 17.1637 23.4118 17.0511 23.4867 16.9141L23.71 16.5058C24.0197 15.9395 24.833 15.9395 25.1427 16.5058Z" fill="white"/>
<path d="M37.7236 20.2949C38.3294 21.1089 38.8067 22.0396 39.1176 23.0665C39.8734 25.5627 39.4949 28.1319 38.279 30.2212" stroke="#FCC378" stroke-width="0.585872" stroke-miterlimit="10" stroke-linecap="round" stroke-linejoin="round"/>
<path d="M35.5509 18.2164V18.216C33.3762 16.7408 30.5788 16.224 27.8674 17.0446C27.3315 17.2067 26.8222 17.4145 26.3418 17.6618" stroke="#FCC378" stroke-width="0.585872" stroke-miterlimit="10" stroke-linecap="round" stroke-linejoin="round"/>
<path d="M25.1427 16.5058L25.366 16.9141C25.441 17.0511 25.5536 17.1637 25.6906 17.2386L26.0989 17.4619C26.6652 17.7717 26.6652 18.585 26.0989 18.8947L25.6906 19.118C25.5536 19.1929 25.441 19.3055 25.366 19.4426L25.1427 19.8508C24.833 20.4171 24.0197 20.4171 23.71 19.8508L23.4867 19.4426C23.4118 19.3055 23.2991 19.1929 23.1621 19.118L22.7538 18.8947C22.1875 18.585 22.1875 17.7717 22.7538 17.4619L23.1621 17.2386C23.2991 17.1637 23.4118 17.0511 23.4867 16.9141L23.71 16.5058C24.0197 15.9395 24.833 15.9395 25.1427 16.5058Z" stroke="#FCC378" stroke-width="0.585872" stroke-miterlimit="10" stroke-linecap="round" stroke-linejoin="round"/>
<path d="M33.6265 23.9562C33.7034 24.1156 33.7684 24.2828 33.8213 24.4574C34.3801 26.3047 33.3326 28.2621 31.4857 28.8213C29.6389 29.3801 27.6815 28.3326 27.1222 26.4857C26.5629 24.6384 27.611 22.681 29.4578 22.1222C30.3308 21.8578 31.2282 21.9527 31.9911 22.3208" fill="#FCC378" fill-opacity="0.2"/>
<path d="M33.6265 23.9562C33.7034 24.1156 33.7684 24.2828 33.8213 24.4574C34.3801 26.3047 33.3326 28.2621 31.4857 28.8213C29.6389 29.3801 27.6815 28.3326 27.1222 26.4857C26.5629 24.6384 27.611 22.681 29.4578 22.1222C30.3308 21.8578 31.2282 21.9527 31.9911 22.3208" stroke="#FCC378" stroke-width="0.585872" stroke-miterlimit="10" stroke-linecap="round" stroke-linejoin="round"/>
<path d="M35.6557 18.8857L33.8942 20.7555L31.7702 23.0103L30.5489 24.3066C30.1778 24.7003 30.1962 25.3206 30.5903 25.692C30.984 26.0631 31.6042 26.0447 31.9757 25.6506L33.1568 24.3968L35.3034 22.1182L37.0825 20.2293" stroke="#FCC378" stroke-width="0.585872" stroke-miterlimit="10" stroke-linecap="round" stroke-linejoin="round"/>
<path d="M40.1319 17.4898L38.9156 17.3516C38.6645 17.3231 38.4622 17.1324 38.4188 16.8836L38.2083 15.6775C38.1427 15.301 37.6755 15.1612 37.4135 15.4393L36.1124 16.8204C35.7418 17.2145 35.5555 17.7156 35.5508 18.2167V18.2351C35.5508 18.455 35.5859 18.6749 35.6555 18.8854C35.7597 19.2002 35.941 19.4939 36.1991 19.7372C36.4573 19.9806 36.762 20.1442 37.0823 20.229C37.292 20.2852 37.5088 20.3071 37.724 20.2954C38.2352 20.2684 38.7371 20.052 39.116 19.6501L40.417 18.269C40.6791 17.9909 40.5116 17.5328 40.1319 17.4898Z" stroke="#FCC378" stroke-width="0.585872" stroke-miterlimit="10" stroke-linecap="round" stroke-linejoin="round"/>
<path d="M38.1779 30.037L38.4012 30.4453C38.4761 30.5823 38.5888 30.695 38.7258 30.7699L39.134 30.9932C39.7003 31.3029 39.7003 32.1162 39.134 32.4259L38.7258 32.6492C38.5888 32.7242 38.4761 32.8368 38.4012 32.9738L38.1779 33.3821C37.8682 33.9484 37.0549 33.9484 36.7451 33.3821L36.5218 32.9738C36.4469 32.8368 36.3343 32.7242 36.1973 32.6492L35.789 32.4259C35.2227 32.1162 35.2227 31.3029 35.789 30.9932L36.1973 30.7699C36.3343 30.695 36.4469 30.5823 36.5218 30.4453L36.7451 30.037C37.0549 29.4707 37.8682 29.4707 38.1779 30.037Z" stroke="#FCC378" stroke-width="0.585872" stroke-miterlimit="10" stroke-linecap="round" stroke-linejoin="round"/>
</g>
<path d="M57.507 31.77C56.619 31.77 55.809 31.614 55.077 31.302C54.345 30.99 53.715 30.543 53.187 29.961C52.659 29.373 52.251 28.665 51.963 27.837C51.681 27.003 51.54 26.064 51.54 25.02C51.54 23.64 51.786 22.446 52.278 21.438C52.77 20.43 53.463 19.653 54.357 19.107C55.251 18.555 56.301 18.279 57.507 18.279C58.959 18.279 60.129 18.618 61.017 19.296C61.905 19.968 62.517 20.889 62.853 22.059L61.233 22.392C60.963 21.606 60.519 20.979 59.901 20.511C59.283 20.043 58.512 19.809 57.588 19.809C56.622 19.803 55.818 20.019 55.176 20.457C54.54 20.889 54.06 21.498 53.736 22.284C53.412 23.07 53.247 23.982 53.241 25.02C53.235 26.052 53.394 26.958 53.718 27.738C54.042 28.518 54.525 29.13 55.167 29.574C55.815 30.012 56.622 30.234 57.588 30.24C58.422 30.246 59.124 30.087 59.694 29.763C60.264 29.439 60.705 28.971 61.017 28.359C61.329 27.747 61.518 27.012 61.584 26.154H58.83V24.831H63.276C63.294 24.951 63.303 25.095 63.303 25.263C63.309 25.425 63.312 25.536 63.312 25.596C63.312 26.778 63.09 27.837 62.646 28.773C62.208 29.703 61.557 30.435 60.693 30.969C59.835 31.503 58.773 31.77 57.507 31.77ZM69.2496 31.77C68.2836 31.77 67.4496 31.551 66.7476 31.113C66.0516 30.675 65.5146 30.069 65.1366 29.295C64.7586 28.521 64.5696 27.633 64.5696 26.631C64.5696 25.611 64.7616 24.717 65.1456 23.949C65.5296 23.181 66.0726 22.584 66.7746 22.158C67.4766 21.726 68.3016 21.51 69.2496 21.51C70.2216 21.51 71.0586 21.729 71.7606 22.167C72.4626 22.599 72.9996 23.202 73.3716 23.976C73.7496 24.744 73.9386 25.629 73.9386 26.631C73.9386 27.645 73.7496 28.539 73.3716 29.313C72.9936 30.081 72.4536 30.684 71.7516 31.122C71.0496 31.554 70.2156 31.77 69.2496 31.77ZM69.2496 30.249C70.2576 30.249 71.0076 29.913 71.4996 29.241C71.9916 28.569 72.2376 27.699 72.2376 26.631C72.2376 25.533 71.9886 24.66 71.4906 24.012C70.9926 23.358 70.2456 23.031 69.2496 23.031C68.5716 23.031 68.0136 23.184 67.5756 23.49C67.1376 23.796 66.8106 24.219 66.5946 24.759C66.3786 25.299 66.2706 25.923 66.2706 26.631C66.2706 27.723 66.5226 28.599 67.0266 29.259C67.5306 29.919 68.2716 30.249 69.2496 30.249ZM78.6832 31.77C77.9572 31.77 77.3482 31.638 76.8562 31.374C76.3702 31.104 76.0012 30.75 75.7492 30.312C75.5032 29.874 75.3802 29.394 75.3802 28.872C75.3802 28.362 75.4762 27.921 75.6682 27.549C75.8662 27.171 76.1422 26.859 76.4962 26.613C76.8502 26.361 77.2732 26.163 77.7652 26.019C78.2272 25.893 78.7432 25.785 79.3132 25.695C79.8892 25.599 80.4712 25.512 81.0592 25.434C81.6472 25.356 82.1962 25.281 82.7062 25.209L82.1302 25.542C82.1482 24.678 81.9742 24.039 81.6082 23.625C81.2482 23.211 80.6242 23.004 79.7362 23.004C79.1482 23.004 78.6322 23.139 78.1882 23.409C77.7502 23.673 77.4412 24.105 77.2612 24.705L75.7402 24.246C75.9742 23.394 76.4272 22.725 77.0992 22.239C77.7712 21.753 78.6562 21.51 79.7542 21.51C80.6362 21.51 81.3922 21.669 82.0222 21.987C82.6582 22.299 83.1142 22.773 83.3902 23.409C83.5282 23.709 83.6152 24.036 83.6512 24.39C83.6872 24.738 83.7052 25.104 83.7052 25.488V31.5H82.2832V29.169L82.6162 29.385C82.2502 30.171 81.7372 30.765 81.0772 31.167C80.4232 31.569 79.6252 31.77 78.6832 31.77ZM78.9262 30.429C79.5022 30.429 80.0002 30.327 80.4202 30.123C80.8462 29.913 81.1882 29.64 81.4462 29.304C81.7042 28.962 81.8722 28.59 81.9502 28.188C82.0402 27.888 82.0882 27.555 82.0942 27.189C82.1062 26.817 82.1122 26.532 82.1122 26.334L82.6702 26.577C82.1482 26.649 81.6352 26.718 81.1312 26.784C80.6272 26.85 80.1502 26.922 79.7002 27C79.2502 27.072 78.8452 27.159 78.4852 27.261C78.2212 27.345 77.9722 27.453 77.7382 27.585C77.5102 27.717 77.3242 27.888 77.1802 28.098C77.0422 28.302 76.9732 28.557 76.9732 28.863C76.9732 29.127 77.0392 29.379 77.1712 29.619C77.3092 29.859 77.5192 30.054 77.8012 30.204C78.0892 30.354 78.4642 30.429 78.9262 30.429ZM86.2252 31.5V18.27H87.8272V31.5H86.2252ZM94.1996 31.761C93.0416 31.761 92.0906 31.509 91.3466 31.005C90.6086 30.495 90.1556 29.784 89.9876 28.872L91.6256 28.611C91.7576 29.139 92.0606 29.559 92.5346 29.871C93.0086 30.177 93.5966 30.33 94.2986 30.33C94.9646 30.33 95.4866 30.192 95.8646 29.916C96.2426 29.64 96.4316 29.265 96.4316 28.791C96.4316 28.515 96.3686 28.293 96.2426 28.125C96.1166 27.951 95.8556 27.789 95.4596 27.639C95.0696 27.489 94.4786 27.309 93.6866 27.099C92.8286 26.871 92.1536 26.634 91.6616 26.388C91.1696 26.142 90.8186 25.857 90.6086 25.533C90.3986 25.209 90.2936 24.816 90.2936 24.354C90.2936 23.784 90.4496 23.286 90.7616 22.86C91.0736 22.428 91.5086 22.095 92.0666 21.861C92.6306 21.627 93.2846 21.51 94.0286 21.51C94.7666 21.51 95.4266 21.627 96.0086 21.861C96.5906 22.095 97.0586 22.428 97.4126 22.86C97.7726 23.286 97.9856 23.784 98.0516 24.354L96.4136 24.651C96.3356 24.129 96.0836 23.718 95.6576 23.418C95.2376 23.118 94.6946 22.959 94.0286 22.941C93.3986 22.917 92.8856 23.028 92.4896 23.274C92.0996 23.52 91.9046 23.853 91.9046 24.273C91.9046 24.507 91.9766 24.708 92.1206 24.876C92.2706 25.044 92.5436 25.203 92.9396 25.353C93.3416 25.503 93.9236 25.674 94.6856 25.866C95.5436 26.082 96.2186 26.319 96.7106 26.577C97.2086 26.829 97.5626 27.129 97.7726 27.477C97.9826 27.819 98.0876 28.242 98.0876 28.746C98.0876 29.682 97.7426 30.42 97.0526 30.96C96.3626 31.494 95.4116 31.761 94.1996 31.761Z" fill="#FCC378"/>
</g>
<defs>
<filter id="filter0_d_2571_8403" x="0" y="0" width="208" height="54" filterUnits="userSpaceOnUse" color-interpolation-filters="sRGB">
<feFlood flood-opacity="0" result="BackgroundImageFix"/>
<feColorMatrix in="SourceAlpha" type="matrix" values="0 0 0 0 0 0 0 0 0 0 0 0 0 0 0 0 0 0 127 0" result="hardAlpha"/>
<feOffset dy="2"/>
<feGaussianBlur stdDeviation="2.5"/>
<feComposite in2="hardAlpha" operator="out"/>
<feColorMatrix type="matrix" values="0 0 0 0 1 0 0 0 0 0.776471 0 0 0 0 0.686275 0 0 0 0.5 0"/>
<feBlend mode="normal" in2="BackgroundImageFix" result="effect1_dropShadow_2571_8403"/>
<feBlend mode="normal" in="SourceGraphic" in2="effect1_dropShadow_2571_8403" result="shape"/>
</filter>
<clipPath id="clip0_2571_8403">
<rect width="20" height="20" fill="white" transform="translate(21 15)"/>
</clipPath>
</defs>
</svg>
