<svg width="20" height="20" viewBox="0 0 20 20" fill="none" xmlns="http://www.w3.org/2000/svg">
<g clip-path="url(#clip0_2607_8404)">
<path d="M4.18975 3.37042C4.98119 2.79763 5.87984 2.34464 6.86742 2.04569C11.637 0.601785 16.6741 3.29785 18.1179 8.06748C19.3448 12.1203 17.5826 16.3663 14.099 18.4368L9.60903 19.0879L2.68379 13.9859L2.68359 5.96252L4.18975 3.37042Z" fill="#FCC378"/>
<path d="M3.86807 6.1925C3.86807 5.22167 3.97942 4.27693 4.18983 3.37012C1.15896 5.56366 -0.299474 9.51349 0.845437 13.2955C2.28934 18.0652 7.32636 20.7612 12.0959 19.3173C12.8128 19.1003 13.4823 18.8016 14.0985 18.4354C8.28223 17.3935 3.86807 12.3085 3.86807 6.1925Z" fill="#FCC378"/>
<path d="M4.0295 8.19546C4.72028 6.6827 6.03197 5.4619 7.74499 4.94332C10.9089 3.9855 14.2622 5.78034 15.2201 8.94432C16.1779 12.1083 14.383 15.4616 11.2191 16.4195C10.6837 16.5815 10.143 16.6648 9.60927 16.676L6.8379 15.7135L3.75195 11.0247L4.0295 8.19546Z" fill="white"/>
<path d="M4.02982 8.19531C3.44472 9.47662 3.30474 10.9672 3.74399 12.4181C4.53972 15.0467 6.9889 16.7301 9.60923 16.6753C6.69147 14.8073 4.606 11.7543 4.02982 8.19531Z" fill="white"/>
<path d="M9.48182 13.6482C11.1205 13.6482 12.449 12.3198 12.449 10.681C12.449 9.04231 11.1205 7.71387 9.48182 7.71387C7.8431 7.71387 6.51465 9.04231 6.51465 10.681C6.51465 12.3198 7.8431 13.6482 9.48182 13.6482Z" fill="white"/>
<path d="M9.58928 10.6918C9.1953 10.3206 9.17679 9.70035 9.54796 9.30637L15.4411 3.05078L16.8678 4.39485L10.9747 10.6504C10.6035 11.0445 9.98326 11.0629 9.58928 10.6918Z" fill="white"/>
<path d="M19.4172 3.26899L18.1161 4.65017C17.3346 5.47964 16.0288 5.51859 15.1993 4.73719C14.3698 3.95575 14.3309 2.64988 15.1123 1.8204L16.4134 0.43923C16.6754 0.161097 17.1425 0.301198 17.2082 0.677641L17.4187 1.88356C17.4621 2.13256 17.6644 2.32312 17.9156 2.35167L19.1319 2.48986C19.5115 2.53298 19.6792 2.99086 19.4172 3.26899Z" fill="#FCC378"/>
<path d="M17.1779 15.037L17.4012 15.4453C17.4761 15.5823 17.5888 15.695 17.7258 15.7699L18.134 15.9932C18.7003 16.3029 18.7003 17.1162 18.134 17.4259L17.7258 17.6492C17.5888 17.7242 17.4761 17.8368 17.4012 17.9738L17.1779 18.3821C16.8682 18.9484 16.0549 18.9484 15.7451 18.3821L15.5218 17.9738C15.4469 17.8368 15.3343 17.7242 15.1973 17.6492L14.789 17.4259C14.2227 17.1162 14.2227 16.3029 14.789 15.9932L15.1973 15.7699C15.3343 15.695 15.4469 15.5823 15.5218 15.4453L15.7451 15.037C16.0549 14.4707 16.8682 14.4707 17.1779 15.037Z" fill="white"/>
<path d="M4.14274 1.50578L4.36604 1.91406C4.44095 2.05107 4.5536 2.16372 4.69061 2.23863L5.09889 2.46193C5.66519 2.77166 5.66519 3.58496 5.09889 3.8947L4.69061 4.11799C4.5536 4.19291 4.44095 4.30555 4.36604 4.44256L4.14274 4.85084C3.83301 5.41714 3.0197 5.41714 2.70997 4.85084L2.48668 4.44256C2.41176 4.30555 2.29912 4.19291 2.1621 4.11799L1.75383 3.8947C1.18753 3.58496 1.18753 2.77166 1.75383 2.46193L2.1621 2.23863C2.29912 2.16372 2.41176 2.05107 2.48668 1.91406L2.70997 1.50578C3.01967 0.939479 3.83301 0.939479 4.14274 1.50578Z" fill="white"/>
<path d="M16.7236 5.29492C17.3294 6.10889 17.8067 7.03965 18.1176 8.06649C18.8734 10.5627 18.4949 13.1319 17.279 15.2212" stroke="#FCC378" stroke-width="0.585872" stroke-miterlimit="10" stroke-linecap="round" stroke-linejoin="round"/>
<path d="M14.5509 3.21639V3.216C12.3762 1.74078 9.57883 1.22404 6.86741 2.04465C6.33153 2.20674 5.82221 2.41453 5.3418 2.66177" stroke="#FCC378" stroke-width="0.585872" stroke-miterlimit="10" stroke-linecap="round" stroke-linejoin="round"/>
<path d="M4.14274 1.50578L4.36604 1.91406C4.44095 2.05107 4.5536 2.16372 4.69061 2.23863L5.09889 2.46193C5.66519 2.77166 5.66519 3.58497 5.09889 3.8947L4.69061 4.11799C4.5536 4.19291 4.44095 4.30555 4.36604 4.44256L4.14274 4.85084C3.83301 5.41714 3.0197 5.41714 2.70997 4.85084L2.48668 4.44256C2.41176 4.30555 2.29912 4.19291 2.1621 4.11799L1.75383 3.8947C1.18753 3.58497 1.18753 2.77166 1.75383 2.46193L2.1621 2.23863C2.29912 2.16372 2.41176 2.05107 2.48668 1.91406L2.70997 1.50578C3.01967 0.939479 3.83301 0.939479 4.14274 1.50578Z" stroke="#FCC378" stroke-width="0.585872" stroke-miterlimit="10" stroke-linecap="round" stroke-linejoin="round"/>
<path d="M12.6265 8.95617C12.7034 9.11556 12.7684 9.28278 12.8213 9.45738C13.3801 11.3047 12.3326 13.2621 10.4857 13.8213C8.63886 14.3801 6.68145 13.3326 6.12219 11.4857C5.56293 9.63842 6.61097 7.68102 8.45782 7.12223C9.3308 6.8578 10.2282 6.9527 10.9911 7.32078" fill="#FCC378" fill-opacity="0.2"/>
<path d="M12.6265 8.95617C12.7034 9.11556 12.7684 9.28278 12.8213 9.45738C13.3801 11.3047 12.3326 13.2621 10.4857 13.8213C8.63886 14.3801 6.68145 13.3326 6.12219 11.4857C5.56293 9.63842 6.61097 7.68102 8.45782 7.12223C9.3308 6.8578 10.2282 6.9527 10.9911 7.32078" stroke="#FCC378" stroke-width="0.585872" stroke-miterlimit="10" stroke-linecap="round" stroke-linejoin="round"/>
<path d="M14.6557 3.88574L12.8942 5.75546L10.7702 8.01028L9.54889 9.30662C9.17784 9.70033 9.1962 10.3206 9.5903 10.692C9.984 11.0631 10.6042 11.0447 10.9757 10.6506L12.1568 9.39685L14.3034 7.11819L16.0825 5.22934" stroke="#FCC378" stroke-width="0.585872" stroke-miterlimit="10" stroke-linecap="round" stroke-linejoin="round"/>
<path d="M19.1319 2.48983L17.9156 2.35157C17.6645 2.32305 17.4622 2.13245 17.4188 1.88365L17.2083 0.677533C17.1427 0.301013 16.6755 0.161185 16.4135 0.439279L15.1124 1.82037C14.7418 2.21447 14.5555 2.71559 14.5508 3.2167V3.23506C14.5508 3.45496 14.5859 3.67486 14.6555 3.88538C14.7597 4.20019 14.941 4.49391 15.1991 4.73724C15.4573 4.98057 15.762 5.14422 16.0823 5.22898C16.292 5.28522 16.5088 5.3071 16.724 5.29538C17.2352 5.26843 17.7371 5.05205 18.116 4.65014L19.417 3.26904C19.6791 2.99095 19.5116 2.5328 19.1319 2.48983Z" stroke="#FCC378" stroke-width="0.585872" stroke-miterlimit="10" stroke-linecap="round" stroke-linejoin="round"/>
<path d="M17.1779 15.037L17.4012 15.4453C17.4761 15.5823 17.5888 15.695 17.7258 15.7699L18.134 15.9932C18.7003 16.3029 18.7003 17.1162 18.134 17.4259L17.7258 17.6492C17.5888 17.7242 17.4761 17.8368 17.4012 17.9738L17.1779 18.3821C16.8682 18.9484 16.0549 18.9484 15.7451 18.3821L15.5218 17.9738C15.4469 17.8368 15.3343 17.7242 15.1973 17.6492L14.789 17.4259C14.2227 17.1162 14.2227 16.3029 14.789 15.9932L15.1973 15.7699C15.3343 15.695 15.4469 15.5823 15.5218 15.4453L15.7451 15.037C16.0549 14.4707 16.8682 14.4707 17.1779 15.037Z" stroke="#FCC378" stroke-width="0.585872" stroke-miterlimit="10" stroke-linecap="round" stroke-linejoin="round"/>
</g>
<defs>
<clipPath id="clip0_2607_8404">
<rect width="20" height="20" fill="white"/>
</clipPath>
</defs>
</svg>
