<svg width="20" height="20" viewBox="0 0 20 20" fill="none" xmlns="http://www.w3.org/2000/svg">
<path d="M5.34375 10.923L5.34379 10.9232C5.35617 10.9107 5.35535 10.9114 5.34375 10.923Z" fill="#FCC378"/>
<path d="M18.6018 8.43392L17.7067 8.21867C17.512 7.36894 17.1768 6.56145 16.7081 5.81063L17.1618 5.04898C17.2854 4.84146 17.2519 4.57674 17.0815 4.40628L15.5947 2.91952C15.4242 2.74959 15.1601 2.71559 14.952 2.83918L14.1904 3.29285C13.4395 2.82423 12.632 2.48898 11.7823 2.29433L11.5671 1.39914C11.5083 1.16483 11.2977 1 11.0557 1H8.94634C8.7043 1 8.49368 1.1648 8.43497 1.39914L8.21971 2.29433C7.36999 2.48898 6.56249 2.82423 5.81167 3.29285L5.05003 2.83918C4.84251 2.71555 4.57779 2.74906 4.40733 2.91952L2.9205 4.40625C2.75004 4.5767 2.71656 4.84139 2.84015 5.04894L3.29383 5.81059C2.82521 6.56141 2.48995 7.36891 2.29531 8.21863L1.40012 8.43388C1.16581 8.4926 1.00098 8.70321 1.00098 8.94526V11.0546C1.00098 11.2967 1.16577 11.5078 1.40061 11.566L2.2958 11.7812C2.42558 12.3443 2.62089 12.8852 2.87173 13.4041C3.25902 13.0152 5.20417 11.0617 5.34397 10.9221C5.33708 10.8866 5.26173 10.2111 5.25972 10.0795C5.21486 7.39232 7.37931 5.25435 10.003 5.25435C12.6447 5.25435 14.7512 7.38445 14.7413 10.0164C14.7299 12.4504 12.9132 14.5226 10.3759 14.7121C10.2661 14.7205 9.76987 14.7938 9.07816 14.6574L6.60317 17.1324C7.12003 17.3817 7.65894 17.5758 8.21968 17.705L8.43493 18.6008C8.49365 18.8351 8.70426 18.9999 8.94631 18.9999H11.0557C11.2977 18.9999 11.5083 18.8351 11.567 18.6008L11.7823 17.7056C12.632 17.5109 13.4395 17.1757 14.1903 16.707L14.952 17.1607C15.1585 17.2843 15.4237 17.2503 15.5947 17.0804L17.0814 15.5936C17.2519 15.4232 17.2854 15.1585 17.1618 14.9509L16.7081 14.1893C17.1772 13.4385 17.512 12.631 17.7066 11.7807L18.6013 11.566C18.8361 11.5078 19.0009 11.2967 19.0009 11.0546V8.94526C19.0009 8.70325 18.8362 8.4926 18.6018 8.43392Z" fill="#FCC378"/>
<path d="M13.5696 9.03586C13.5233 8.8543 13.3831 8.71147 13.2023 8.66197C13.0216 8.61239 12.8286 8.66404 12.696 8.79653L11.4927 9.99997C11.0813 10.4113 10.4126 10.4113 10.0013 9.99997C9.59031 9.58901 9.59031 8.91955 10.0013 8.50856L11.2052 7.30467C11.3376 7.17218 11.3888 6.9788 11.3393 6.79818C11.2897 6.61756 11.147 6.47716 10.9655 6.43103C8.74034 5.86555 6.73788 7.31497 6.37063 9.31655C6.2527 9.97574 6.30523 10.6323 6.52097 11.2369C6.22091 11.537 1.58626 16.1716 1.46169 16.2962C0.843182 16.9147 0.843182 17.921 1.47147 18.5493C2.09388 19.1393 3.04711 19.1641 3.70493 18.5395L8.76425 13.4802C9.57445 13.7693 10.478 13.7635 11.3623 13.4515C12.9556 12.8892 14.0707 11.0024 13.5696 9.03586Z" fill="#FCC378"/>
</svg>
