<svg width="25" height="24" viewBox="0 0 25 24" fill="none" xmlns="http://www.w3.org/2000/svg">
<g clip-path="url(#clip0_1638_14044)">
<path d="M12.5 21C17.4706 21 21.5 16.9706 21.5 12C21.5 7.02944 17.4706 3 12.5 3C7.52944 3 3.5 7.02944 3.5 12C3.5 16.9706 7.52944 21 12.5 21Z" stroke="#FCC378" stroke-width="2" stroke-linecap="round" stroke-linejoin="round"/>
<path d="M11.75 11.25C11.9489 11.25 12.1397 11.329 12.2803 11.4697C12.421 11.6103 12.5 11.8011 12.5 12V15.75C12.5 15.9489 12.579 16.1397 12.7197 16.2803C12.8603 16.421 13.0511 16.5 13.25 16.5" stroke="#FCC378" stroke-width="2" stroke-linecap="round" stroke-linejoin="round"/>
<path d="M11.8359 9.31348C12.6644 9.31348 13.3359 8.6419 13.3359 7.81348C13.3359 6.98505 12.6644 6.31348 11.8359 6.31348C11.0075 6.31348 10.3359 6.98505 10.3359 7.81348C10.3359 8.6419 11.0075 9.31348 11.8359 9.31348Z" fill="#FCC378"/>
</g>
<defs>
<clipPath id="clip0_1638_14044">
<rect width="24" height="24" fill="white" transform="translate(0.5)"/>
</clipPath>
</defs>
</svg>
