<?xml version="1.0" encoding="utf-8"?>
<svg viewBox="487.6000061035156 386.29998779296875 75.00015258789062 74" width="75.00015258789062" height="74" xmlns="http://www.w3.org/2000/svg"><g id="_x38_" transform="matrix(1, 0, 0, 1, 1.8474111129762605e-12, 4.618527782440651e-13)">
		<path class="st11" d="M523.4,460.3c-19.8,0-35.8-16.1-35.8-35.9c0-9.9,4-18.9,10.5-25.3l25.3,25.3V460.3z" style="fill: rgb(246, 142, 41);"/>
		<path class="st8" d="M526.7,460.3C526.7,460.3,526.6,460.3,526.7,460.3l-0.1-35.9l-0.1-0.1l27.9-22.7c5.1,6.2,8.2,14.2,8.2,22.8&#10;&#9;&#9;&#9;C562.6,444.2,546.5,460.3,526.7,460.3z" style="fill: rgb(240, 95, 48);"/>
		<path class="st14" d="M499.8,396.8c6.5-6.5,15.5-10.5,25.4-10.5c11.1,0,21.1,5.1,27.7,13L525,422L499.8,396.8z" style="fill: rgb(85, 183, 197);"/>
	</g></svg>