<svg width="21" height="18" viewBox="0 0 21 18" fill="none" xmlns="http://www.w3.org/2000/svg">
<g id="Frame 2147223989">
<path id="Vector" d="M9.69597 2.47783C10.0867 2.4325 10.4798 2.4099 10.8732 2.41016C15.1966 2.41016 18.6598 5.10115 20.1429 8.89895C19.7839 9.82275 19.2988 10.6925 18.7015 11.4833M5.79342 3.81823C3.9024 4.9723 2.43779 6.76043 1.60352 8.89895C3.08667 12.6967 6.54983 15.3877 10.8732 15.3877C12.6642 15.3972 14.4228 14.9094 15.953 13.9787M8.90804 6.93377C8.64979 7.19203 8.44493 7.49862 8.30517 7.83604C8.1654 8.17347 8.09346 8.53512 8.09346 8.90034C8.09346 9.26557 8.1654 9.62721 8.30517 9.96464C8.44493 10.3021 8.64979 10.6087 8.90804 10.8669C9.1663 11.1252 9.47289 11.33 9.81031 11.4698C10.1477 11.6095 10.5094 11.6815 10.8746 11.6815C11.2398 11.6815 11.6015 11.6095 11.9389 11.4698C12.2763 11.33 12.5829 11.1252 12.8412 10.8669" stroke="#282828" stroke-width="1.39046" stroke-linecap="round" stroke-linejoin="round"/>
<path id="Vector_2" d="M3.45703 1.48242L18.2886 16.3139" stroke="#282828" stroke-width="1.39046" stroke-linecap="round"/>
</g>
</svg>
