<svg width="20" height="20" viewBox="0 0 20 20" fill="none" xmlns="http://www.w3.org/2000/svg">
<g clip-path="url(#clip0_1638_16168)">
<path d="M7.50107 4.58333C7.50107 3.89167 8.0594 3.33333 8.75107 3.33333C9.44274 3.33333 10.0011 3.89167 10.0011 4.58333C10.0011 5.275 9.44274 5.83333 8.75107 5.83333C8.0594 5.83333 7.50107 5.275 7.50107 4.58333ZM20.0011 4.16667V9.16667C20.0011 11.4667 18.1344 13.3333 15.8344 13.3333H8.3344C6.0344 13.3333 4.16774 11.4667 4.16774 9.16667V4.16667C4.16774 1.86667 6.0344 0 8.3344 0H15.8344C18.1344 0 20.0011 1.86667 20.0011 4.16667ZM5.8344 9.16667C5.8344 9.80833 6.07607 10.3917 6.47607 10.8417L10.8427 6.475C11.6594 5.65833 13.0844 5.65833 13.9011 6.475L14.7677 7.34167C14.9594 7.53333 15.2844 7.53333 15.4761 7.34167L18.3344 4.48333V4.16667C18.3344 2.79167 17.2094 1.66667 15.8344 1.66667H8.3344C6.9594 1.66667 5.8344 2.79167 5.8344 4.16667V9.16667ZM18.3344 9.16667V6.84167L16.6511 8.525C15.8344 9.34167 14.4094 9.34167 13.5927 8.525L12.7261 7.65833C12.5344 7.46667 12.2177 7.46667 12.0177 7.65833L8.02607 11.65C8.12607 11.6667 8.22607 11.6667 8.3344 11.6667H15.8344C17.2094 11.6667 18.3344 10.5417 18.3344 9.16667ZM15.0761 15.0333C14.6344 14.9083 14.1761 15.175 14.0511 15.6167L13.8094 16.5C13.6344 17.1417 13.2177 17.6833 12.6344 18.0083C12.0511 18.3417 11.3761 18.425 10.7344 18.25L3.50107 16.2667C2.16774 15.9 1.3844 14.525 1.75107 13.1917L2.55107 10.225C2.66774 9.78333 2.4094 9.325 1.96774 9.2C1.52607 9.08333 1.06774 9.34167 0.942735 9.78333L0.151069 12.7417C-0.457265 14.9583 0.851069 17.2583 3.06774 17.8667L10.3011 19.85C10.6677 19.95 11.0427 20 11.4094 20C12.1261 20 12.8261 19.8167 13.4677 19.45C14.4344 18.9 15.1261 18.0083 15.4261 16.9333L15.6677 16.05C15.7927 15.6083 15.5261 15.15 15.0844 15.025L15.0761 15.0333Z" fill="#FCC378"/>
</g>
<defs>
<clipPath id="clip0_1638_16168">
<rect width="20" height="20" fill="white"/>
</clipPath>
</defs>
</svg>
