<svg width="54" height="54" viewBox="0 0 54 54" fill="none" xmlns="http://www.w3.org/2000/svg">
<g clip-path="url(#clip0_1807_14138)">
<path d="M5.02847 31.1954C4.88272 30.2167 4.80984 29.2173 4.80984 28.2074C4.80984 19.4519 10.3797 11.6749 18.6668 8.86396L19.9057 8.44753L19.9161 9.76971C19.9161 10.0404 20.0722 10.2798 20.3117 10.4048C20.5511 10.5297 20.8322 10.5089 21.0613 10.3631L26.6519 6.58397C26.8497 6.44863 26.9747 6.21959 26.9747 5.98014C26.9747 5.74069 26.8497 5.51165 26.6519 5.37631L20.978 1.5555C20.7489 1.39934 20.4679 1.38893 20.2284 1.51386C19.989 1.63879 19.8432 1.88865 19.8432 2.15933L19.864 3.52316L19.1353 3.70015C13.7008 5.05357 8.81804 8.2289 5.36162 12.6535C1.9052 17.0886 0 22.6064 0 28.2074C0 29.6962 0.124931 31.185 0.385204 32.6321C0.426847 32.8403 0.551778 33.0277 0.739175 33.1422C0.853695 33.2047 0.978626 33.2359 1.10356 33.2359C1.18684 33.2359 1.28054 33.2255 1.36383 33.1943L4.57039 31.9866C4.89313 31.8617 5.08052 31.5389 5.02847 31.1954ZM1.68657 31.5077C1.54081 30.425 1.45753 29.311 1.45753 28.2074C1.45753 17.2552 8.8701 7.77082 19.4788 5.12644L20.7698 4.80371C21.0925 4.72042 21.3215 4.42891 21.3215 4.08535L21.3111 3.53357L24.9341 5.98014L21.3632 8.38506L21.3528 7.41685C21.3528 7.18781 21.2383 6.96918 21.0405 6.83383C20.8531 6.69849 20.6032 6.66726 20.3846 6.74014L18.1879 7.47931C9.32818 10.4985 3.36272 18.8272 3.36272 28.2074C3.36272 29.082 3.41478 29.9565 3.51889 30.8206L1.68657 31.5077ZM41.4979 46.4057L38.8535 44.2298C38.5933 44.0112 38.208 44.0112 37.9374 44.2194C34.3456 47.072 29.8481 48.6336 25.2465 48.6336C20.2805 48.6336 15.5018 46.8326 11.7747 43.5635L10.7961 42.6994L11.9309 42.0331C12.1599 41.8978 12.2953 41.6479 12.2849 41.3772C12.2745 41.1066 12.1183 40.8671 11.8788 40.7526L5.8197 37.7959C5.60107 37.6918 5.3408 37.7022 5.13258 37.8167C4.92436 37.9416 4.78902 38.1603 4.7682 38.3997L4.29971 45.2293C4.27888 45.5 4.41423 45.7602 4.64327 45.8956C4.87231 46.0413 5.16381 46.0413 5.39285 45.906L6.56928 45.2085L7.08983 45.7498C9.46352 48.2068 12.2536 50.1224 15.3769 51.455C18.5002 52.7772 21.8213 53.4539 25.236 53.4539C31.1807 53.4539 36.9587 51.3509 41.4979 47.5197C41.6645 47.3843 41.7582 47.1761 41.7582 46.9575C41.7582 46.7389 41.6645 46.5411 41.4979 46.4057ZM25.2465 51.9964C18.7396 51.9964 12.6597 49.4145 8.14133 44.74L7.22517 43.7822C7.07942 43.6364 6.89202 43.5635 6.70463 43.5635C6.5797 43.5635 6.44435 43.5948 6.32983 43.6676L5.85093 43.9487L6.15285 39.5866L10.0153 41.4709L9.18242 41.9603C8.98462 42.0748 8.84928 42.283 8.82845 42.5224C8.80763 42.7515 8.90133 42.9805 9.07831 43.1367L10.8169 44.6671C14.8043 48.1652 19.9265 50.1016 25.2465 50.1016C29.973 50.1016 34.6163 48.5504 38.3746 45.729L39.8842 46.9679C35.7198 50.2161 30.556 51.9964 25.2465 51.9964ZM53.0852 8.85355C53.2935 8.64533 53.3559 8.33301 53.2414 8.06232C53.1269 7.79164 52.8666 7.61465 52.5647 7.61465H46.2244V1.27441C46.2244 0.982901 46.0475 0.712217 45.7768 0.597697C45.5061 0.483177 45.1938 0.545643 44.9855 0.753861L38.8223 6.91712C37.2502 5.91767 35.5845 5.09521 33.8355 4.46015C33.6272 4.38727 33.4086 4.40809 33.2212 4.5122C33.0338 4.62672 32.9089 4.80371 32.8672 5.02234L32.3051 8.40588C32.253 8.74944 32.4404 9.07218 32.7527 9.20752C34.7829 10.0092 36.6568 11.1231 38.333 12.5182L38.2497 14.5483C37.8124 14.9856 37.0628 15.7352 35.8552 16.9428C33.0963 14.4338 29.4421 12.9034 25.4234 12.9034C16.8761 12.9034 9.9216 19.8579 9.9216 28.4052C9.9216 36.9526 16.8761 43.9071 25.4234 43.9071C33.9708 43.9071 40.9253 36.9526 40.9253 28.4052C40.9253 24.397 39.3949 20.7324 36.8859 17.9735C37.0733 17.7861 37.2607 17.5987 37.4272 17.4321L39.2804 15.579L41.2272 15.4957C44.0902 19.0979 45.6623 23.5954 45.6623 28.197C45.6623 29.54 45.5269 30.883 45.2666 32.1844L45.0168 33.4649L43.8716 32.8195C43.6425 32.6841 43.351 32.6945 43.122 32.8403C42.893 32.986 42.768 33.2359 42.7888 33.5066L43.2573 40.232C43.2782 40.4715 43.4135 40.6901 43.6217 40.8151C43.7362 40.8775 43.8612 40.9087 43.9861 40.9087C44.1006 40.9087 44.2047 40.8879 44.3088 40.8359L50.4617 37.8271C50.7011 37.7126 50.8573 37.4627 50.8677 37.1921C50.8781 36.9214 50.7324 36.6715 50.4929 36.5362L49.3061 35.8699L49.5143 35.1515C50.1598 32.9028 50.4825 30.5707 50.4825 28.197C50.4825 23.5538 49.2228 19.0562 46.8179 15.1001C46.8283 15.0897 46.8387 15.0793 46.8491 15.0689L53.0852 8.85355ZM39.4782 28.4052C39.4782 36.151 33.1796 42.4496 25.4339 42.4496C17.6881 42.4496 11.3895 36.151 11.3895 28.4052C11.3895 20.6595 17.6985 14.3609 25.4339 14.3609C29.0464 14.3609 32.3363 15.7352 34.8245 17.9735C34.2103 18.5878 33.5023 19.2957 32.7007 20.0973C30.7538 18.3899 28.2136 17.3593 25.4339 17.3593C19.3435 17.3593 14.3983 22.3149 14.3983 28.3948C14.3983 34.4748 19.3539 39.4304 25.4339 39.4304C31.5138 39.4304 36.4694 34.4852 36.4694 28.3948C36.4694 25.6151 35.4387 23.0749 33.7314 21.128C34.5434 20.316 35.2409 19.6184 35.8552 19.0042C38.1143 21.5028 39.4782 24.7927 39.4782 28.4052ZM30.556 28.4052C30.556 31.2266 28.2656 33.517 25.4443 33.517C22.6229 33.517 20.3325 31.2266 20.3325 28.4052C20.3325 25.5839 22.6229 23.2935 25.4443 23.2935C26.5895 23.2935 27.6514 23.6787 28.5051 24.3138C27.818 25.0009 27.0892 25.7296 26.3188 26.5C26.0481 26.3751 25.7566 26.3022 25.4443 26.3022C24.2887 26.3022 23.3413 27.2392 23.3413 28.4052C23.3413 29.5609 24.2782 30.4978 25.4443 30.4978C26.5999 30.4978 27.5369 29.5609 27.5369 28.4052C27.5369 28.0929 27.464 27.8014 27.3495 27.5307C28.1199 26.7603 28.859 26.0211 29.5358 25.3444C30.1708 26.1981 30.556 27.26 30.556 28.4052ZM29.5358 23.2727C28.4114 22.3669 26.9851 21.836 25.4339 21.836C21.8109 21.836 18.8646 24.7822 18.8646 28.4052C18.8646 32.0282 21.8109 34.9745 25.4339 34.9745C29.0569 34.9745 32.0031 32.0282 32.0031 28.4052C32.0031 26.854 31.4618 25.4277 30.5664 24.3033C31.3368 23.5329 32.0448 22.825 32.7007 22.1691C34.1374 23.8453 35.0119 26.0211 35.0119 28.4052C35.0119 33.6836 30.7122 37.9833 25.4339 37.9833C20.1555 37.9833 15.8558 33.6836 15.8558 28.4052C15.8558 23.1269 20.1555 18.8272 25.4339 18.8272C27.818 18.8272 29.9938 19.7017 31.67 21.1384C31.0245 21.7943 30.3062 22.5023 29.5358 23.2727ZM44.7773 3.03385V8.34342C44.7773 8.74944 45.1001 9.07218 45.5061 9.07218H50.8157L46.0371 13.8508L39.9883 14.0902C39.9571 14.0382 39.9258 13.9965 39.8842 13.9549C39.8738 13.9445 39.8321 13.9028 39.7489 13.8508L39.8113 12.2475C39.8113 12.2267 39.8113 12.2059 39.8113 12.185L39.9883 7.80205L44.7773 3.03385ZM33.8459 8.08314L34.1686 6.15712C35.6886 6.77137 37.1461 7.54178 38.51 8.45794L38.4163 10.7171C37.0108 9.65519 35.4804 8.77026 33.8459 8.08314ZM48.0984 36.8693L48.5773 37.14L44.642 39.066L44.3401 34.7663L45.1938 35.2452C45.402 35.3597 45.6414 35.3701 45.8601 35.2764C46.0683 35.1827 46.2244 34.9849 46.2661 34.7559L46.7138 32.4863C46.9949 31.1017 47.1302 29.665 47.1302 28.2178C47.1302 23.637 45.6727 19.1499 43.0075 15.4437L45.2458 15.35C47.734 19.1916 49.0354 23.6266 49.0354 28.2074C49.0354 30.4354 48.7231 32.6425 48.1192 34.7559L47.7549 36.0364C47.6612 36.3592 47.8069 36.7027 48.0984 36.8693Z" fill="#F16A77"/>
</g>
<defs>
<clipPath id="clip0_1807_14138">
<rect width="53.3039" height="53.3039" fill="white" transform="translate(0 0.347656)"/>
</clipPath>
</defs>
</svg>
