<svg width="63" height="64" viewBox="0 0 63 64" fill="none" xmlns="http://www.w3.org/2000/svg">
<path d="M32.9978 22.6666C32.9288 21.779 32.5182 20.9716 31.8418 20.3927C31.1654 19.8139 30.3046 19.5336 29.4166 19.6022C28.529 19.6712 27.7216 20.0817 27.1433 20.7575L20.4027 28.6213L17.7397 25.6557C16.5093 24.2887 14.3961 24.1775 13.0292 25.4078C12.367 26.0038 11.9764 26.8221 11.9296 27.7117C11.8828 28.6012 12.185 29.4555 12.7805 30.1176L17.9798 35.9078C18.614 36.6124 19.5104 37.0099 20.4554 37.0099C20.497 37.0099 20.5386 37.0091 20.5804 37.0075C21.5657 36.971 22.4766 36.5079 23.0836 35.7355L32.2073 25.0914C32.786 24.4155 33.0668 23.5541 32.9978 22.6666ZM30.8209 23.9046L21.684 34.5639C21.6742 34.5755 21.6645 34.5872 21.6553 34.5992C21.3805 34.954 20.964 35.1672 20.5127 35.184C20.064 35.2018 19.6356 35.0195 19.3372 34.6879L14.1386 28.8985C14.1384 28.8982 14.1381 28.898 14.1379 28.8977C13.868 28.5979 13.7311 28.2108 13.7523 27.808C13.7734 27.4051 13.9502 27.0347 14.2502 26.7648C14.5384 26.5054 14.8998 26.3777 15.26 26.3777C15.6734 26.3777 16.0851 26.5459 16.3824 26.8763L19.7396 30.615C19.915 30.8104 20.1651 30.9196 20.4291 30.9179C20.6918 30.9148 20.9405 30.7988 21.1115 30.5992L28.5297 21.945C28.7914 21.6391 29.1567 21.4533 29.5581 21.4222C29.9598 21.3909 30.3491 21.5179 30.6552 21.7797C30.9611 22.0414 31.1469 22.4067 31.178 22.8082C31.2092 23.2096 31.0823 23.5993 30.8209 23.9046ZM61.8001 27.8642C61.652 27.5208 61.3046 27.3037 60.936 27.3131L56.9084 27.4277L57.0232 23.4001C57.0337 23.0264 56.8154 22.684 56.4722 22.536C56.1288 22.3882 55.7299 22.4646 55.4656 22.7288L50.4068 27.7875C50.242 27.9523 50.1465 28.1739 50.1398 28.4069L50.0448 31.7466C48.4318 30.489 46.5477 29.5639 44.4962 29.0748C44.5051 28.8165 44.5097 28.5579 44.5097 28.3008C44.5097 16.1468 34.6217 6.25879 22.4678 6.25879C10.3138 6.25903 0.425781 16.1469 0.425781 28.3009C0.425781 40.4547 10.3138 50.3428 22.4678 50.3428C24.3743 50.3428 26.2607 50.0998 28.0865 49.6198C30.459 54.4271 35.412 57.742 41.1254 57.742C49.138 57.742 55.6567 51.2234 55.6567 43.2107C55.6567 39.8516 54.5104 36.7553 52.5893 34.2915L55.9291 34.1964C56.1621 34.1898 56.3837 34.0942 56.5485 33.9296L61.6072 28.8707C61.8716 28.6063 61.9481 28.2074 61.8001 27.8642ZM22.4678 48.5175C11.3202 48.5175 2.25099 39.4484 2.25099 28.3009C2.25099 17.1534 11.3202 8.08424 22.4678 8.08424C33.6153 8.08424 42.6845 17.1535 42.6845 28.301C42.6845 28.4543 42.6799 28.6085 42.6764 28.7624C42.1667 28.708 41.6494 28.6796 41.1256 28.6796C40.6932 28.6796 40.2656 28.6996 39.8428 28.7369C39.8465 28.5915 39.8486 28.4461 39.8486 28.301C39.8486 18.7171 32.0516 10.9201 22.4678 10.9201C12.8838 10.9201 5.08688 18.7172 5.08688 28.301C5.08688 37.8848 12.8839 45.6818 22.4678 45.6818C23.9121 45.6818 25.3388 45.5025 26.7245 45.1536C26.8524 46.1061 27.0724 47.0296 27.3761 47.9147C25.7783 48.3131 24.132 48.5175 22.4678 48.5175ZM26.5943 43.2107C26.5943 43.2412 26.5953 43.2715 26.5955 43.3019C25.2569 43.6693 23.8718 43.8566 22.4679 43.8566C13.8905 43.8566 6.91222 36.8783 6.91222 28.301C6.91222 19.7236 13.8905 12.7453 22.4679 12.7453C31.0453 12.7453 38.0236 19.7236 38.0236 28.301C38.0236 28.5393 38.018 28.7787 38.0071 29.0176C31.4882 30.4487 26.5943 36.2684 26.5943 43.2107ZM41.1254 55.9168C34.1193 55.9168 28.4194 50.2168 28.4194 43.2107C28.4194 36.2045 34.1193 30.5047 41.1254 30.5047C44.3008 30.5047 47.2078 31.6755 49.4375 33.608L47.2652 35.7801C45.5962 34.3987 43.4561 33.5672 41.1254 33.5672C35.808 33.5672 31.482 37.8932 31.482 43.2106C31.482 48.5279 35.808 52.854 41.1254 52.854C46.4428 52.854 50.7688 48.5279 50.7688 43.2106C50.7688 40.8798 49.9373 38.7398 48.5559 37.0708L50.7281 34.8987C52.6607 37.1283 53.8315 40.0353 53.8315 43.2107C53.8316 50.2168 48.1317 55.9168 41.1254 55.9168ZM44.1467 43.2107C44.1467 44.8765 42.7914 46.2318 41.1256 46.2318C39.4598 46.2318 38.1045 44.8765 38.1045 43.2107C38.1045 41.5449 39.4598 40.1896 41.1256 40.1896C41.6268 40.1896 42.0993 40.313 42.5158 40.5298L40.4802 42.5653C40.1238 42.9218 40.1238 43.4995 40.4802 43.8559C40.6583 44.0341 40.8919 44.1232 41.1254 44.1232C41.3589 44.1232 41.5926 44.0341 41.7707 43.8559L43.8063 41.8204C44.0233 42.2369 44.1467 42.7096 44.1467 43.2107ZM43.8444 39.2012C43.0686 38.6734 42.1325 38.3644 41.1254 38.3644C38.4532 38.3644 36.2791 40.5384 36.2791 43.2107C36.2791 45.8829 38.4532 48.057 41.1254 48.057C43.7977 48.057 45.9717 45.8829 45.9717 43.2107C45.9717 42.2036 45.6628 41.2676 45.1351 40.4918L47.2574 38.3695C48.3118 39.7021 48.9436 41.3835 48.9436 43.2108C48.9436 47.5218 45.4363 51.029 41.1254 51.029C36.8144 51.029 33.3072 47.5218 33.3072 43.2108C33.3072 38.8999 36.8144 35.3927 41.1254 35.3927C42.9527 35.3927 44.6341 36.0245 45.9668 37.0788L43.8444 39.2012ZM55.5146 32.3823L51.8497 32.4866L51.9539 28.8217L55.1333 25.6424L55.0564 28.3415C55.0492 28.5924 55.1459 28.8353 55.3234 29.0128C55.5008 29.1904 55.7433 29.2857 55.9947 29.2798L58.694 29.2029L55.5146 32.3823Z" fill="#86FFCF"/>
</svg>
