<svg width="228" height="224" viewBox="0 0 228 224" fill="none" xmlns="http://www.w3.org/2000/svg">
<ellipse cx="114.353" cy="112.001" rx="113.647" ry="111.824" fill="#FFC6AF"/>
<g filter="url(#filter0_i_1696_9737)">
<path d="M228 112.001C228 93.0587 223.11 74.4273 213.789 57.8541C204.467 41.281 191.02 27.3092 174.708 17.2497C158.397 7.19008 139.756 1.37235 120.533 0.342239C101.311 -0.687871 82.1382 3.1034 64.8128 11.3604L72.8493 27.6863C87.3641 20.7688 103.427 17.5926 119.531 18.4556C135.635 19.3186 151.252 24.1925 164.917 32.6202C178.583 41.0479 189.849 52.7532 197.658 66.6378C205.467 80.5225 209.564 96.1315 209.564 112.001H228Z" fill="#FFC6AF"/>
</g>
<path d="M228 112.001C228 131.985 222.557 151.605 212.237 168.818C201.918 186.031 187.098 200.208 169.321 209.874C151.545 219.54 131.46 224.342 111.158 223.78C90.855 223.218 71.0765 217.313 53.88 206.679C36.6836 196.045 22.6977 181.07 13.3777 163.314C4.05763 145.557 -0.255962 125.668 0.885752 105.715C2.02747 85.7615 8.58277 66.474 19.8695 49.8591C31.1563 33.2442 46.762 19.9092 65.0629 11.2416L114.353 112.001H228Z" fill="#86FFCF"/>
<g filter="url(#filter1_i_1696_9737)">
<path d="M65.0778 11.2345C46.5106 20.025 30.7215 33.617 19.3998 50.5563C8.078 67.4955 1.64957 87.1448 0.802199 107.402C-0.0451699 127.659 4.72041 147.761 14.5891 165.559C24.4578 183.356 39.0583 198.179 56.8285 208.441L66.1602 192.796C51.2727 184.199 39.0407 171.781 30.7729 156.871C22.5051 141.96 18.5126 125.119 19.2225 108.148C19.9324 91.1769 25.318 74.7152 34.8032 60.5238C44.2883 46.3324 57.5161 34.9454 73.0713 27.5809L65.0778 11.2345Z" fill="#86FFCF"/>
</g>
<path d="M228 112.001C228 131.697 222.713 151.044 212.673 168.085C202.633 185.125 188.197 199.253 170.826 209.041C153.455 218.829 133.764 223.928 113.747 223.823C93.7292 223.718 74.0951 218.412 56.8308 208.443L114.353 112.001H228Z" fill="#F16A77"/>
<g filter="url(#filter2_i_1696_9737)">
<path d="M56.845 208.451C74.1089 218.417 93.7417 223.719 113.757 223.823C133.773 223.926 153.461 218.826 170.83 209.039C188.199 199.252 202.633 185.124 212.672 168.086C222.711 151.047 227.999 131.702 228 112.008L209.564 112.007C209.563 128.506 205.133 144.713 196.723 158.988C188.312 173.262 176.22 185.098 161.668 193.297C147.117 201.497 130.622 205.769 113.854 205.683C97.0853 205.596 80.6374 201.154 66.174 192.804L56.845 208.451Z" fill="#F16A77"/>
</g>
<path d="M123.844 70.3786L131.229 57.909L126.24 58.8535L125.618 55.4281L133.619 54.0843L136.851 55.9989L127.169 72.3479L123.844 70.3786ZM136.462 66.81C138.76 62.9306 142.691 59.0832 147.541 61.9551C152.39 64.827 150.906 70.1241 148.609 74.0035C146.311 77.8829 142.379 81.7303 137.53 78.8584C132.681 75.9865 134.165 70.6895 136.462 66.81ZM139.926 68.8614C138.914 70.5702 136.923 74.1947 139.417 75.6717C141.911 77.1487 144.133 73.6609 145.145 71.9521C146.157 70.2433 148.147 66.6188 145.654 65.1418C143.16 63.6648 140.938 67.1526 139.926 68.8614Z" fill="#BA7D64"/>
<path d="M45.956 106.844C45.956 102.335 47.3784 97.0216 53.0143 97.0216C58.6502 97.0216 60.0726 102.335 60.0726 106.844C60.0726 111.353 58.6502 116.667 53.0143 116.667C47.3784 116.667 45.956 111.353 45.956 106.844ZM49.9816 106.844C49.9816 108.83 50.1158 112.963 53.0143 112.963C55.9127 112.963 56.0469 108.83 56.0469 106.844C56.0469 104.858 55.9127 100.725 53.0143 100.725C50.1158 100.725 49.9816 104.858 49.9816 106.844ZM63.556 116.345L71.339 101.047H61.9458V97.3436H75.8477V100.886L68.2526 116.345H63.556Z" fill="#47B388"/>
<path d="M126.583 166.017C124.291 162.134 122.814 156.835 127.667 153.97C132.52 151.104 136.447 154.957 138.739 158.84C141.031 162.722 142.508 168.021 137.655 170.887C132.802 173.752 128.875 169.899 126.583 166.017ZM130.05 163.97C131.059 165.68 133.276 169.171 135.772 167.697C138.268 166.224 136.282 162.597 135.273 160.886C134.263 159.176 132.046 155.685 129.55 157.159C127.054 158.633 129.04 162.26 130.05 163.97ZM145.239 156.716L143.466 153.712L144.598 153.043C145.869 152.293 147.069 151.21 146.155 149.662C145.568 148.668 144.244 148.484 143.111 149.152C142.025 149.794 141.681 150.901 141.978 151.878L137.701 153.344C136.739 150.079 138.432 147.614 141.205 145.977C144.117 144.258 147.561 144.126 149.417 147.269C150.481 149.071 150.319 151.068 148.735 152.502L148.776 152.571C150.89 151.665 152.982 152.674 154.101 154.569C156.039 157.851 154.313 161.052 151.101 162.948C148.189 164.667 145.137 164.724 142.734 162.185L145.88 159.174C146.793 160.193 147.947 160.509 149.426 159.636C150.928 158.749 151.126 157.448 150.403 156.223C149.311 154.374 147.597 155.324 146.048 156.238L145.239 156.716Z" fill="#A7434D"/>
<defs>
<filter id="filter0_i_1696_9737" x="64.8125" y="0.176758" width="163.188" height="116.297" filterUnits="userSpaceOnUse" color-interpolation-filters="sRGB">
<feFlood flood-opacity="0" result="BackgroundImageFix"/>
<feBlend mode="normal" in="SourceGraphic" in2="BackgroundImageFix" result="shape"/>
<feColorMatrix in="SourceAlpha" type="matrix" values="0 0 0 0 0 0 0 0 0 0 0 0 0 0 0 0 0 0 127 0" result="hardAlpha"/>
<feOffset dy="4.47295"/>
<feGaussianBlur stdDeviation="11.1824"/>
<feComposite in2="hardAlpha" operator="arithmetic" k2="-1" k3="1"/>
<feColorMatrix type="matrix" values="0 0 0 0 0 0 0 0 0 0 0 0 0 0 0 0 0 0 0.25 0"/>
<feBlend mode="normal" in2="shape" result="effect1_innerShadow_1696_9737"/>
</filter>
<filter id="filter1_i_1696_9737" x="0.706055" y="11.2344" width="72.3652" height="201.68" filterUnits="userSpaceOnUse" color-interpolation-filters="sRGB">
<feFlood flood-opacity="0" result="BackgroundImageFix"/>
<feBlend mode="normal" in="SourceGraphic" in2="BackgroundImageFix" result="shape"/>
<feColorMatrix in="SourceAlpha" type="matrix" values="0 0 0 0 0 0 0 0 0 0 0 0 0 0 0 0 0 0 127 0" result="hardAlpha"/>
<feOffset dy="4.47295"/>
<feGaussianBlur stdDeviation="11.1824"/>
<feComposite in2="hardAlpha" operator="arithmetic" k2="-1" k3="1"/>
<feColorMatrix type="matrix" values="0 0 0 0 0 0 0 0 0 0 0 0 0 0 0 0 0 0 0.25 0"/>
<feBlend mode="normal" in2="shape" result="effect1_innerShadow_1696_9737"/>
</filter>
<filter id="filter2_i_1696_9737" x="56.8447" y="112.007" width="171.155" height="116.29" filterUnits="userSpaceOnUse" color-interpolation-filters="sRGB">
<feFlood flood-opacity="0" result="BackgroundImageFix"/>
<feBlend mode="normal" in="SourceGraphic" in2="BackgroundImageFix" result="shape"/>
<feColorMatrix in="SourceAlpha" type="matrix" values="0 0 0 0 0 0 0 0 0 0 0 0 0 0 0 0 0 0 127 0" result="hardAlpha"/>
<feOffset dy="4.47295"/>
<feGaussianBlur stdDeviation="11.1824"/>
<feComposite in2="hardAlpha" operator="arithmetic" k2="-1" k3="1"/>
<feColorMatrix type="matrix" values="0 0 0 0 0 0 0 0 0 0 0 0 0 0 0 0 0 0 0.25 0"/>
<feBlend mode="normal" in2="shape" result="effect1_innerShadow_1696_9737"/>
</filter>
</defs>
</svg>
