<svg width="16" height="16" viewBox="0 0 16 16" fill="none" xmlns="http://www.w3.org/2000/svg">
<g clip-path="url(#clip0_1696_9516)">
<path d="M4.26751 7.99987L7.46751 10.6665L11.7342 5.3332M8.00085 15.4665C7.02031 15.4665 6.04937 15.2734 5.14348 14.8982C4.23758 14.5229 3.41446 13.9729 2.72112 13.2796C2.02777 12.5863 1.47778 11.7631 1.10255 10.8572C0.727311 9.95134 0.53418 8.98041 0.53418 7.99987C0.53418 7.01933 0.727311 6.0484 1.10255 5.1425C1.47778 4.2366 2.02777 3.41348 2.72112 2.72014C3.41446 2.02679 4.23758 1.4768 5.14348 1.10157C6.04937 0.726334 7.02031 0.533203 8.00085 0.533203C9.98113 0.533203 11.8803 1.31987 13.2806 2.72014C14.6808 4.12041 15.4675 6.01959 15.4675 7.99987C15.4675 9.98015 14.6808 11.8793 13.2806 13.2796C11.8803 14.6799 9.98113 15.4665 8.00085 15.4665Z" stroke="#02D86D" stroke-width="1.06667"/>
</g>
<defs>
<clipPath id="clip0_1696_9516">
<rect width="16" height="16" fill="white"/>
</clipPath>
</defs>
</svg>
