<svg width="70" height="70" viewBox="0 0 70 70" fill="none" xmlns="http://www.w3.org/2000/svg">
<path fill-rule="evenodd" clip-rule="evenodd" d="M22.934 53.3097C22.6178 53.1426 22.3051 52.9689 21.9958 52.7885L17.8794 54.6119C17.4657 54.7951 16.9821 54.7051 16.6622 54.3853L11.2034 48.9264C10.8831 48.6061 10.7932 48.1217 10.9772 47.7078L12.8064 43.5942C11.6353 41.5977 10.7456 39.446 10.1531 37.205L5.95436 35.5892C5.53175 35.4265 5.25293 35.0205 5.25293 34.5678V26.8461C5.25293 26.3932 5.53175 25.9873 5.95436 25.8246L10.1526 24.2089C10.7452 21.9621 11.6351 19.8147 12.8066 17.8126L10.9772 13.6982C10.7932 13.2843 10.8831 12.7999 11.2034 12.4796L16.6622 7.02077C16.9825 6.70049 17.4669 6.61061 17.8808 6.79462L21.9952 8.62404C23.9972 7.45254 26.1441 6.56314 28.3848 5.97636L30.0076 1.77081C30.1704 1.34875 30.5762 1.07035 31.0286 1.07035H38.7503C39.2033 1.07035 39.6095 1.34944 39.7719 1.77232L41.3874 5.97663C43.3992 6.50362 45.3354 7.27455 47.1591 8.27449L54.0386 1.39117C54.3219 1.10769 54.7376 1.00167 55.122 1.11495C55.5064 1.22809 55.7983 1.54248 55.8827 1.93416L56.9863 7.05442L57.9236 6.11713C58.3507 5.69001 59.0443 5.69001 59.4715 6.11713C59.8986 6.54426 59.8986 7.23775 59.4715 7.66487L58.5342 8.60229L63.6543 9.70594C64.0461 9.79035 64.3604 10.0822 64.4737 10.4665C64.5869 10.8509 64.481 11.2664 64.1977 11.5497L57.3204 18.4269C58.3214 20.2521 59.0931 22.1907 59.6203 24.2095L63.8168 25.8246C64.2394 25.9873 64.5183 26.3932 64.5183 26.8461V34.5678C64.5183 35.0205 64.2394 35.4265 63.8168 35.5892L59.6198 37.2044C59.0322 39.4446 58.1376 41.5912 56.9713 43.5928L58.7945 47.7092C58.9779 48.1228 58.8877 48.6065 58.5678 48.9264L53.109 54.3853C52.7891 54.7051 52.3055 54.7951 51.8918 54.6119L47.7776 52.7895C47.5241 52.9384 47.268 53.0825 47.0094 53.2222L55.1295 67.2864C55.325 67.6251 55.325 68.0423 55.1295 68.3809C54.934 68.7195 54.5727 68.9282 54.1816 68.9282H48.4243C48.0333 68.9282 47.672 68.7195 47.4765 68.3809L44.6273 63.446H25.3666L22.5174 68.3809C22.3219 68.7195 21.9606 68.9282 21.5696 68.9282H15.8123C15.4212 68.9282 15.0599 68.7195 14.8644 68.3809C14.6689 68.0423 14.6689 67.6251 14.8644 67.2864L22.934 53.3097ZM45.5409 9.89364C43.8843 9.04378 42.1323 8.39666 40.3168 7.9653C39.9654 7.88171 39.6778 7.63025 39.5482 7.29302L37.9983 3.25931H31.7795L30.2224 7.29452C30.0926 7.63094 29.8053 7.88185 29.4544 7.9653C27.0483 8.53703 24.7537 9.48759 22.6448 10.7871C22.3372 10.9766 21.9561 11.0022 21.626 10.8554L17.6784 9.10028L13.2829 13.4959L15.038 17.4434C15.1848 17.7735 15.1592 18.1546 14.9697 18.4622C13.6698 20.5719 12.7189 22.8675 12.1395 25.2819C12.0555 25.6321 11.8045 25.9185 11.4684 26.0479L7.44189 27.5976V33.8161L11.4684 35.3659C11.8042 35.4951 12.0551 35.7813 12.1394 36.1311C12.7187 38.5376 13.6691 40.8404 14.9688 42.9423C15.1591 43.25 15.1851 43.632 15.038 43.9626L13.2829 47.9102L17.6793 52.3066L21.6273 50.5577C21.9562 50.412 22.3357 50.4372 22.6425 50.6252C23.3829 51.0788 24.1461 51.4913 24.9294 51.8604C26.3778 52.543 27.8946 53.0771 29.4613 53.4482C29.813 53.5316 30.1008 53.783 30.2305 54.1201L31.7801 58.1467H37.9988L39.5485 54.1201C39.6782 53.7833 39.9656 53.532 40.3168 53.4485C40.3627 53.4376 40.4085 53.4265 40.4543 53.4154C42.0276 53.0314 43.5555 52.4852 45.0109 51.7852C45.7346 51.437 46.4404 51.0508 47.1249 50.6275C47.4322 50.4375 47.8135 50.4113 48.1439 50.5577L52.0919 52.3066L56.4891 47.9093L54.7403 43.9611C54.5946 43.6324 54.6198 43.2529 54.8078 42.9461C56.1003 40.8364 57.0591 38.5411 57.6311 36.1342C57.7146 35.783 57.9659 35.4955 58.3028 35.3659L62.3293 33.8161V27.5976L58.3028 26.0479C57.9656 25.9181 57.7141 25.6304 57.631 25.2788C57.1993 23.4571 56.5519 21.7032 55.7017 20.0458L55.0621 20.6854C54.7993 20.9482 54.421 21.0597 54.0576 20.9813L52.4978 20.6451C54.2006 23.6126 55.1752 27.0474 55.1752 30.703C55.1752 41.8751 46.0623 50.9926 34.8856 50.9926C23.7134 50.9926 14.596 41.8751 14.596 30.703C14.596 19.5263 23.7134 10.4134 34.8856 10.4134C38.5408 10.4134 41.9752 11.3877 44.9425 13.0902L44.6073 11.5363C44.5289 11.1731 44.6403 10.7948 44.9031 10.5319L45.5409 9.89364ZM45.0349 54.1799C44.1662 54.5554 43.2766 54.8821 42.3702 55.1586C44.2207 58.3638 49.0563 66.7392 49.0563 66.7392H52.2859L45.0349 54.1799ZM40.8337 56.8752L39.7718 59.6342C39.6091 60.0569 39.203 60.3357 38.7503 60.3357H31.0286C30.5759 60.3357 30.1699 60.0569 30.0072 59.6342C30.0072 59.6342 29.4826 58.2711 29.0314 57.0986L26.6303 61.2571H43.3636L40.8337 56.8752ZM27.5917 55.214C26.6816 54.9436 25.789 54.6222 24.9172 54.2525C23.2173 57.1968 17.708 66.7392 17.708 66.7392H20.9377L27.5917 55.214ZM55.1442 8.89657L54.1662 4.35995L46.8728 11.6575L47.8504 16.1903L55.1442 8.89657ZM46.0085 18.0323L45.5976 16.1274C42.5951 13.9131 38.8888 12.6023 34.8856 12.6023C24.9188 12.6023 16.7849 20.7322 16.7849 30.703C16.7849 40.6698 24.9188 48.8037 34.8856 48.8037C44.8565 48.8037 52.9863 40.6698 52.9863 30.703C52.9863 26.6995 51.6752 22.9931 49.4608 19.9905L47.5564 19.5801L45.1172 22.0191C47.1105 24.3632 48.3154 27.3969 48.3154 30.703C48.3154 38.0958 42.2831 44.1328 34.8856 44.1328C27.4928 44.1328 21.4558 38.0958 21.4558 30.703C21.4558 23.3054 27.4928 17.2732 34.8856 17.2732C38.1917 17.2732 41.2252 18.4781 43.5695 20.4713L46.0085 18.0323ZM49.3985 17.7379C51.1089 18.1065 53.9359 18.7158 53.9359 18.7158L61.2293 11.4225L56.6919 10.4444L49.3985 17.7379ZM42.0167 22.024C40.0741 20.4245 37.5888 19.4621 34.8856 19.4621C28.6978 19.4621 23.6447 24.5113 23.6447 30.703C23.6447 36.8908 28.6978 41.9439 34.8856 41.9439C41.0773 41.9439 46.1265 36.8908 46.1265 30.703C46.1265 27.9998 45.1641 25.5145 43.5646 23.5719L40.2408 26.8956C41.0058 27.9697 41.4558 29.2837 41.4558 30.703C41.4558 34.3319 38.5145 37.2688 34.8856 37.2688C31.2564 37.2688 28.3198 34.3322 28.3198 30.703C28.3198 27.0741 31.2567 24.1328 34.8856 24.1328C36.3047 24.1328 37.6188 24.5828 38.6929 25.3478L42.0167 22.024ZM37.1119 26.9288C36.4595 26.5432 35.6984 26.3218 34.8856 26.3218C32.4661 26.3218 30.5088 28.2835 30.5088 30.703C30.5088 33.1222 32.4664 35.0798 34.8856 35.0798C37.3051 35.0798 39.2668 33.1225 39.2668 30.703C39.2668 29.8902 39.0454 29.129 38.6598 28.4767L35.6587 31.4776C35.2316 31.9047 34.5381 31.9047 34.111 31.4776C33.6839 31.0505 33.6839 30.357 34.111 29.9298L37.1119 26.9288Z" fill="#FFC6AF"/>
</svg>
